<?xml version="1.0" encoding="UTF-8" standalone="no"?>
<!-- Created with Inkscape (http://www.inkscape.org/) -->

<svg
   xmlns:dc="http://purl.org/dc/elements/1.1/"
   xmlns:cc="http://creativecommons.org/ns#"
   xmlns:rdf="http://www.w3.org/1999/02/22-rdf-syntax-ns#"
   xmlns:svg="http://www.w3.org/2000/svg"
   xmlns="http://www.w3.org/2000/svg"
   xmlns:sodipodi="http://sodipodi.sourceforge.net/DTD/sodipodi-0.dtd"
   xmlns:inkscape="http://www.inkscape.org/namespaces/inkscape"
   width="257.40179mm"
   height="103.5489mm"
   viewBox="0 0 257.40179 103.5489"
   version="1.1"
   id="svg5861"
   inkscape:version="0.92.2 (5c3e80d, 2017-08-06)"
   sodipodi:docname="cluster-asumpt.svg">
  <defs
     id="defs5855" />
  <sodipodi:namedview
     id="base"
     pagecolor="#ffffff"
     bordercolor="#666666"
     borderopacity="1.0"
     inkscape:pageopacity="0.0"
     inkscape:pageshadow="2"
     inkscape:zoom="1.499464"
     inkscape:cx="376.62949"
     inkscape:cy="119.40718"
     inkscape:document-units="mm"
     inkscape:current-layer="layer6"
     showgrid="false"
     inkscape:window-width="1920"
     inkscape:window-height="1031"
     inkscape:window-x="1680"
     inkscape:window-y="0"
     inkscape:window-maximized="1" />
  <metadata
     id="metadata5858">
    <rdf:RDF>
      <cc:Work
         rdf:about="">
        <dc:format>image/svg+xml</dc:format>
        <dc:type
           rdf:resource="http://purl.org/dc/dcmitype/StillImage" />
        <dc:title></dc:title>
      </cc:Work>
    </rdf:RDF>
  </metadata>
  <g
     inkscape:label="Capa 1"
     inkscape:groupmode="layer"
     id="layer1"
     style="display:inline"
     transform="translate(1.700893,-73.160177)">
    <path
       style="fill:none;fill-rule:evenodd;stroke:#000000;stroke-width:0.26458332px;stroke-linecap:butt;stroke-linejoin:miter;stroke-opacity:1"
       d="M -1.700893,168.13304 H 255.70089"
       id="path6406"
       inkscape:connector-curvature="0"
       sodipodi:nodetypes="cc" />
  </g>
  <g
     inkscape:groupmode="layer"
     id="layer3"
     inkscape:label="Capa 5"
     style="display:inline"
     transform="translate(1.700893,-73.160177)">
    <path
       style="fill:none;fill-rule:evenodd;stroke:#ff0000;stroke-width:0.79374999;stroke-linecap:butt;stroke-linejoin:miter;stroke-miterlimit:4;stroke-dasharray:none;stroke-opacity:1"
       d="m 9.0714284,168.13304 c 0,0 33.6254196,1.43543 45.9860926,-7.97504 23.501476,-17.89222 22.74622,-80.603407 31.805074,-80.448126 9.058855,0.155281 11.497899,61.560516 32.874155,79.913586 10.58018,9.08385 41.1595,8.15172 41.1595,8.15172"
       id="path6408"
       inkscape:connector-curvature="0"
       sodipodi:nodetypes="cszsc" />
    <path
       sodipodi:nodetypes="cszsc"
       inkscape:connector-curvature="0"
       id="path6410"
       d="m 98.462808,167.82663 c 0,0 33.625422,1.74184 45.986092,-7.66863 23.50147,-17.89222 22.74622,-80.603407 31.80507,-80.448126 9.05886,0.155281 11.4979,61.560516 32.87416,79.913586 10.58018,9.08385 41.1595,8.28536 41.1595,8.28536"
       style="display:inline;fill:none;fill-rule:evenodd;stroke:#00fe00;stroke-width:0.79374999;stroke-linecap:butt;stroke-linejoin:miter;stroke-miterlimit:4;stroke-dasharray:none;stroke-opacity:1" />
    <path
       style="display:inline;fill:none;fill-rule:evenodd;stroke:#000000;stroke-width:0.79374999;stroke-linecap:butt;stroke-linejoin:miter;stroke-miterlimit:4;stroke-dasharray:none;stroke-opacity:1"
       d="M 132.91398,73.710567 V 176.70907"
       id="path6505"
       inkscape:connector-curvature="0"
       sodipodi:nodetypes="cc" />
    <g
       id="g6958"
       transform="translate(-3.7054908)">
      <text
         id="text6891"
         y="84.935875"
         x="232.323"
         style="font-style:normal;font-variant:normal;font-weight:normal;font-stretch:normal;font-size:7.05555534px;line-height:7.9375px;font-family:'Latin Modern Sans';-inkscape-font-specification:'Latin Modern Sans';font-variant-ligatures:normal;font-variant-position:normal;font-variant-caps:normal;font-variant-numeric:normal;font-variant-alternates:normal;font-feature-settings:normal;text-indent:0;text-align:center;text-decoration:none;text-decoration-line:none;text-decoration-style:solid;text-decoration-color:#000000;letter-spacing:0px;word-spacing:0px;text-transform:none;writing-mode:lr-tb;direction:ltr;text-orientation:mixed;dominant-baseline:auto;baseline-shift:baseline;text-anchor:middle;white-space:normal;shape-padding:0;opacity:1;vector-effect:none;fill:#000000;fill-opacity:1;stroke:none;stroke-width:0.26458332px;stroke-linecap:butt;stroke-linejoin:miter;stroke-miterlimit:4;stroke-dasharray:none;stroke-dashoffset:0;stroke-opacity:1"
         xml:space="preserve"><tspan
           style="font-size:5.64444447px;stroke-width:0.26458332px"
           y="84.935875"
           x="232.323"
           id="tspan6889"
           sodipodi:role="line">front. real</tspan></text>
      <path
         sodipodi:nodetypes="cc"
         inkscape:connector-curvature="0"
         id="path6505-7"
         d="m 195.88392,82.910893 h 23.2696"
         style="display:inline;fill:none;fill-rule:evenodd;stroke:#000000;stroke-width:0.79374999;stroke-linecap:butt;stroke-linejoin:miter;stroke-miterlimit:4;stroke-dasharray:none;stroke-opacity:1" />
    </g>
  </g>
  <g
     inkscape:groupmode="layer"
     id="layer4"
     inkscape:label="Capa 10"
     style="display:inline"
     transform="translate(1.700893,-73.160177)">
    <rect
       style="opacity:1;fill:#00ff01;fill-opacity:1;stroke:#00ff00;stroke-width:0.79374999;stroke-miterlimit:4;stroke-dasharray:none;stroke-dashoffset:0;stroke-opacity:1"
       id="rect6412"
       width="3.2127976"
       height="3.2127976"
       x="147.41072"
       y="166.40923" />
    <rect
       y="166.40923"
       x="58.586308"
       height="3.2127976"
       width="3.2127976"
       id="rect6414"
       style="display:inline;opacity:1;fill:#ff0001;fill-opacity:1;stroke:#ff0000;stroke-width:0.79374999;stroke-miterlimit:4;stroke-dasharray:none;stroke-dashoffset:0;stroke-opacity:1" />
    <path
       style="display:inline;fill:none;fill-rule:evenodd;stroke:#000000;stroke-width:0.79374999;stroke-linecap:butt;stroke-linejoin:miter;stroke-miterlimit:4;stroke-dasharray:0.79375, 0.79375;stroke-dashoffset:0;stroke-opacity:1"
       d="M 104.60491,74.048014 V 175.91259"
       id="path6505-3"
       inkscape:connector-curvature="0"
       sodipodi:nodetypes="cc" />
    <rect
       y="85.522316"
       x="7.2760415"
       height="3.2127976"
       width="3.2127976"
       id="rect6414-3"
       style="display:inline;opacity:1;fill:#ff0001;fill-opacity:1;stroke:#ff0000;stroke-width:0.79374999;stroke-miterlimit:4;stroke-dasharray:none;stroke-dashoffset:0;stroke-opacity:1" />
    <rect
       style="display:inline;opacity:1;fill:#00ff01;fill-opacity:1;stroke:#00ff00;stroke-width:0.79374999;stroke-miterlimit:4;stroke-dasharray:none;stroke-dashoffset:0;stroke-opacity:1"
       id="rect6412-3"
       width="3.2127976"
       height="3.2127976"
       x="13.759295"
       y="85.402649" />
    <text
       xml:space="preserve"
       style="font-style:normal;font-variant:normal;font-weight:normal;font-stretch:normal;font-size:5.64444447px;line-height:7.9375px;font-family:'Latin Modern Sans';-inkscape-font-specification:'Latin Modern Sans';font-variant-ligatures:normal;font-variant-position:normal;font-variant-caps:normal;font-variant-numeric:normal;font-variant-alternates:normal;font-feature-settings:normal;text-indent:0;text-align:center;text-decoration:none;text-decoration-line:none;text-decoration-style:solid;text-decoration-color:#000000;letter-spacing:0px;word-spacing:0px;text-transform:none;writing-mode:lr-tb;direction:ltr;text-orientation:mixed;dominant-baseline:auto;baseline-shift:baseline;text-anchor:middle;white-space:normal;shape-padding:0;opacity:1;vector-effect:none;fill:#000000;fill-opacity:1;stroke:none;stroke-width:0.26458332px;stroke-linecap:butt;stroke-linejoin:miter;stroke-miterlimit:4;stroke-dasharray:none;stroke-dashoffset:0;stroke-opacity:1"
       x="36.785919"
       y="88.539825"
       id="text6592"><tspan
         sodipodi:role="line"
         id="tspan6590"
         x="36.785919"
         y="88.539825"
         style="stroke-width:0.26458332px">etiquetados</tspan></text>
    <g
       id="g6969">
      <text
         id="text6891-9"
         y="91.863068"
         x="229.03073"
         style="font-style:normal;font-variant:normal;font-weight:normal;font-stretch:normal;font-size:7.05555534px;line-height:7.9375px;font-family:'Latin Modern Sans';-inkscape-font-specification:'Latin Modern Sans';font-variant-ligatures:normal;font-variant-position:normal;font-variant-caps:normal;font-variant-numeric:normal;font-variant-alternates:normal;font-feature-settings:normal;text-indent:0;text-align:center;text-decoration:none;text-decoration-line:none;text-decoration-style:solid;text-decoration-color:#000000;letter-spacing:0px;word-spacing:0px;text-transform:none;writing-mode:lr-tb;direction:ltr;text-orientation:mixed;dominant-baseline:auto;baseline-shift:baseline;text-anchor:middle;white-space:normal;shape-padding:0;display:inline;opacity:1;vector-effect:none;fill:#000000;fill-opacity:1;stroke:none;stroke-width:0.26458332px;stroke-linecap:butt;stroke-linejoin:miter;stroke-miterlimit:4;stroke-dasharray:none;stroke-dashoffset:0;stroke-opacity:1"
         xml:space="preserve"><tspan
           style="font-size:5.64444447px;stroke-width:0.26458332px"
           y="91.863068"
           x="229.03073"
           id="tspan6889-0"
           sodipodi:role="line">front. etiq.</tspan></text>
      <path
         sodipodi:nodetypes="cc"
         inkscape:connector-curvature="0"
         id="path6505-7-9"
         d="m 192.09884,89.963537 h 23.2696"
         style="display:inline;fill:none;fill-rule:evenodd;stroke:#000000;stroke-width:0.79374999;stroke-linecap:butt;stroke-linejoin:miter;stroke-miterlimit:4;stroke-dasharray:0.79375, 0.79375;stroke-dashoffset:0;stroke-opacity:1" />
    </g>
  </g>
  <g
     inkscape:groupmode="layer"
     id="layer5"
     inkscape:label="Capa 15"
     style="display:inline"
     transform="translate(1.700893,-73.160177)">
    <path
       style="display:inline;opacity:1;fill:#ff0001;fill-opacity:1;stroke:#ff0000;stroke-width:0.79374999;stroke-miterlimit:4;stroke-dasharray:none;stroke-dashoffset:0;stroke-opacity:1"
       id="path6424"
       sodipodi:type="arc"
       sodipodi:cx="43.65625"
       sodipodi:cy="168.2991"
       sodipodi:rx="1.3229166"
       sodipodi:ry="1.3229166"
       sodipodi:start="0.55747736"
       sodipodi:end="0.55205637"
       sodipodi:open="true"
       d="m 44.778867,168.99899 a 1.3229166,1.3229166 0 0 1 -1.82098,0.42368 1.3229166,1.3229166 0 0 1 -0.426147,-1.82041 1.3229166,1.3229166 0 0 1 1.819825,-0.42861 1.3229166,1.3229166 0 0 1 0.43108,1.81924" />
    <path
       d="m 49.692556,168.99899 a 1.3229166,1.3229166 0 0 1 -1.820981,0.42368 1.3229166,1.3229166 0 0 1 -0.426146,-1.82041 1.3229166,1.3229166 0 0 1 1.819825,-0.42861 1.3229166,1.3229166 0 0 1 0.431079,1.81924"
       sodipodi:open="true"
       sodipodi:end="0.55205637"
       sodipodi:start="0.55747736"
       sodipodi:ry="1.3229166"
       sodipodi:rx="1.3229166"
       sodipodi:cy="168.2991"
       sodipodi:cx="48.569939"
       sodipodi:type="arc"
       id="path6426"
       style="display:inline;opacity:1;fill:#ff0001;fill-opacity:1;stroke:#ff0000;stroke-width:0.79374999;stroke-miterlimit:4;stroke-dasharray:none;stroke-dashoffset:0;stroke-opacity:1" />
    <path
       style="display:inline;opacity:1;fill:#ff0001;fill-opacity:1;stroke:#ff0000;stroke-width:0.79374999;stroke-miterlimit:4;stroke-dasharray:none;stroke-dashoffset:0;stroke-opacity:1"
       id="path6428"
       sodipodi:type="arc"
       sodipodi:cx="80.130951"
       sodipodi:cy="168.2991"
       sodipodi:rx="1.3229166"
       sodipodi:ry="1.3229166"
       sodipodi:start="0.55747736"
       sodipodi:end="0.55205637"
       sodipodi:open="true"
       d="m 81.253568,168.99899 a 1.3229166,1.3229166 0 0 1 -1.82098,0.42368 1.3229166,1.3229166 0 0 1 -0.426147,-1.82041 1.3229166,1.3229166 0 0 1 1.819825,-0.42861 1.3229166,1.3229166 0 0 1 0.431079,1.81924" />
    <path
       d="m 68.591367,168.99899 a 1.3229166,1.3229166 0 0 1 -1.82098,0.42368 1.3229166,1.3229166 0 0 1 -0.426147,-1.82041 1.3229166,1.3229166 0 0 1 1.819825,-0.42861 1.3229166,1.3229166 0 0 1 0.43108,1.81924"
       sodipodi:open="true"
       sodipodi:end="0.55205637"
       sodipodi:start="0.55747736"
       sodipodi:ry="1.3229166"
       sodipodi:rx="1.3229166"
       sodipodi:cy="168.2991"
       sodipodi:cx="67.46875"
       sodipodi:type="arc"
       id="path6430"
       style="display:inline;opacity:1;fill:#ff0001;fill-opacity:1;stroke:#ff0000;stroke-width:0.79374999;stroke-miterlimit:4;stroke-dasharray:none;stroke-dashoffset:0;stroke-opacity:1" />
    <path
       style="display:inline;opacity:1;fill:#ff0001;fill-opacity:1;stroke:#ff0000;stroke-width:0.79374999;stroke-miterlimit:4;stroke-dasharray:none;stroke-dashoffset:0;stroke-opacity:1"
       id="path6432"
       sodipodi:type="arc"
       sodipodi:cx="84.288689"
       sodipodi:cy="168.2991"
       sodipodi:rx="1.3229166"
       sodipodi:ry="1.3229166"
       sodipodi:start="0.55747736"
       sodipodi:end="0.55205637"
       sodipodi:open="true"
       d="m 85.411306,168.99899 a 1.3229166,1.3229166 0 0 1 -1.820981,0.42368 1.3229166,1.3229166 0 0 1 -0.426146,-1.82041 1.3229166,1.3229166 0 0 1 1.819825,-0.42861 1.3229166,1.3229166 0 0 1 0.431079,1.81924" />
    <path
       d="m 102.9872,168.99899 a 1.3229166,1.3229166 0 0 1 -1.82099,0.42368 1.3229166,1.3229166 0 0 1 -0.42614,-1.82041 1.3229166,1.3229166 0 0 1 1.81982,-0.42861 1.3229166,1.3229166 0 0 1 0.43108,1.81924"
       sodipodi:open="true"
       sodipodi:end="0.55205637"
       sodipodi:start="0.55747736"
       sodipodi:ry="1.3229166"
       sodipodi:rx="1.3229166"
       sodipodi:cy="168.2991"
       sodipodi:cx="101.86458"
       sodipodi:type="arc"
       id="path6434"
       style="display:inline;opacity:1;fill:#ff0001;fill-opacity:1;stroke:#ff0000;stroke-width:0.79374999;stroke-miterlimit:4;stroke-dasharray:none;stroke-dashoffset:0;stroke-opacity:1" />
    <path
       style="display:inline;opacity:1;fill:#ff0001;fill-opacity:1;stroke:#ff0000;stroke-width:0.79374999;stroke-miterlimit:4;stroke-dasharray:none;stroke-dashoffset:0;stroke-opacity:1"
       id="path6436"
       sodipodi:type="arc"
       sodipodi:cx="115.47172"
       sodipodi:cy="168.2991"
       sodipodi:rx="1.3229166"
       sodipodi:ry="1.3229166"
       sodipodi:start="0.55747736"
       sodipodi:end="0.55205637"
       sodipodi:open="true"
       d="m 116.59433,168.99899 a 1.3229166,1.3229166 0 0 1 -1.82098,0.42368 1.3229166,1.3229166 0 0 1 -0.42614,-1.82041 1.3229166,1.3229166 0 0 1 1.81982,-0.42861 1.3229166,1.3229166 0 0 1 0.43108,1.81924" />
    <path
       d="m 124.08671,168.99899 a 1.3229166,1.3229166 0 0 1 -1.82098,0.42368 1.3229166,1.3229166 0 0 1 -0.42615,-1.82041 1.3229166,1.3229166 0 0 1 1.81982,-0.42861 1.3229166,1.3229166 0 0 1 0.43108,1.81924"
       sodipodi:open="true"
       sodipodi:end="0.55205637"
       sodipodi:start="0.55747736"
       sodipodi:ry="1.3229166"
       sodipodi:rx="1.3229166"
       sodipodi:cy="168.2991"
       sodipodi:cx="122.96409"
       sodipodi:type="arc"
       id="path6438"
       style="display:inline;opacity:1;fill:#ff0001;fill-opacity:1;stroke:#ff0000;stroke-width:0.79374999;stroke-miterlimit:4;stroke-dasharray:none;stroke-dashoffset:0;stroke-opacity:1" />
    <path
       style="display:inline;opacity:1;fill:#00fc01;fill-opacity:1;stroke:#00ff00;stroke-width:0.79374999;stroke-miterlimit:4;stroke-dasharray:none;stroke-dashoffset:0;stroke-opacity:1"
       id="path6440"
       sodipodi:type="arc"
       sodipodi:cx="172.16815"
       sodipodi:cy="168.2991"
       sodipodi:rx="1.3229166"
       sodipodi:ry="1.3229166"
       sodipodi:start="0.55747736"
       sodipodi:end="0.55205637"
       sodipodi:open="true"
       d="m 173.29077,168.99899 a 1.3229166,1.3229166 0 0 1 -1.82098,0.42368 1.3229166,1.3229166 0 0 1 -0.42615,-1.82041 1.3229166,1.3229166 0 0 1 1.81983,-0.42861 1.3229166,1.3229166 0 0 1 0.43108,1.81924" />
    <path
       d="m 208.82054,168.99899 a 1.3229166,1.3229166 0 0 1 -1.82098,0.42368 1.3229166,1.3229166 0 0 1 -0.42615,-1.82041 1.3229166,1.3229166 0 0 1 1.81983,-0.42861 1.3229166,1.3229166 0 0 1 0.43108,1.81924"
       sodipodi:open="true"
       sodipodi:end="0.55205637"
       sodipodi:start="0.55747736"
       sodipodi:ry="1.3229166"
       sodipodi:rx="1.3229166"
       sodipodi:cy="168.2991"
       sodipodi:cx="207.69792"
       sodipodi:type="arc"
       id="path6442"
       style="display:inline;opacity:1;fill:#00fc01;fill-opacity:1;stroke:#00ff00;stroke-width:0.79374999;stroke-miterlimit:4;stroke-dasharray:none;stroke-dashoffset:0;stroke-opacity:1" />
    <path
       style="display:inline;opacity:1;fill:#00fc01;fill-opacity:1;stroke:#00ff00;stroke-width:0.79374999;stroke-miterlimit:4;stroke-dasharray:none;stroke-dashoffset:0;stroke-opacity:1"
       id="path6444"
       sodipodi:type="arc"
       sodipodi:cx="186.90923"
       sodipodi:cy="168.2991"
       sodipodi:rx="1.3229166"
       sodipodi:ry="1.3229166"
       sodipodi:start="0.55747736"
       sodipodi:end="0.55205637"
       sodipodi:open="true"
       d="m 188.03184,168.99899 a 1.3229166,1.3229166 0 0 1 -1.82098,0.42368 1.3229166,1.3229166 0 0 1 -0.42614,-1.82041 1.3229166,1.3229166 0 0 1 1.81982,-0.42861 1.3229166,1.3229166 0 0 1 0.43108,1.81924" />
    <path
       d="m 173.29077,168.99899 a 1.3229166,1.3229166 0 0 1 -1.82098,0.42368 1.3229166,1.3229166 0 0 1 -0.42615,-1.82041 1.3229166,1.3229166 0 0 1 1.81983,-0.42861 1.3229166,1.3229166 0 0 1 0.43108,1.81924"
       sodipodi:open="true"
       sodipodi:end="0.55205637"
       sodipodi:start="0.55747736"
       sodipodi:ry="1.3229166"
       sodipodi:rx="1.3229166"
       sodipodi:cy="168.2991"
       sodipodi:cx="172.16815"
       sodipodi:type="arc"
       id="path6446"
       style="display:inline;opacity:1;fill:#00fc01;fill-opacity:1;stroke:#00ff00;stroke-width:0.79374999;stroke-miterlimit:4;stroke-dasharray:none;stroke-dashoffset:0;stroke-opacity:1" />
    <path
       style="display:inline;opacity:1;fill:#00fc01;fill-opacity:1;stroke:#00ff00;stroke-width:0.79374999;stroke-miterlimit:4;stroke-dasharray:none;stroke-dashoffset:0;stroke-opacity:1"
       id="path6448"
       sodipodi:type="arc"
       sodipodi:cx="157.2381"
       sodipodi:cy="168.2991"
       sodipodi:rx="1.3229166"
       sodipodi:ry="1.3229166"
       sodipodi:start="0.55747736"
       sodipodi:end="0.55205637"
       sodipodi:open="true"
       d="m 158.36072,168.99899 a 1.3229166,1.3229166 0 0 1 -1.82099,0.42368 1.3229166,1.3229166 0 0 1 -0.42614,-1.82041 1.3229166,1.3229166 0 0 1 1.81982,-0.42861 1.3229166,1.3229166 0 0 1 0.43108,1.81924" />
    <path
       d="m 225.64047,168.99899 a 1.3229166,1.3229166 0 0 1 -1.82098,0.42368 1.3229166,1.3229166 0 0 1 -0.42615,-1.82041 1.3229166,1.3229166 0 0 1 1.81983,-0.42861 1.3229166,1.3229166 0 0 1 0.43108,1.81924"
       sodipodi:open="true"
       sodipodi:end="0.55205637"
       sodipodi:start="0.55747736"
       sodipodi:ry="1.3229166"
       sodipodi:rx="1.3229166"
       sodipodi:cy="168.2991"
       sodipodi:cx="224.51785"
       sodipodi:type="arc"
       id="path6450"
       style="display:inline;opacity:1;fill:#00fc01;fill-opacity:1;stroke:#00ff00;stroke-width:0.79374999;stroke-miterlimit:4;stroke-dasharray:none;stroke-dashoffset:0;stroke-opacity:1" />
    <path
       style="display:inline;opacity:1;fill:#00fc01;fill-opacity:1;stroke:#00ff00;stroke-width:0.79374999;stroke-miterlimit:4;stroke-dasharray:none;stroke-dashoffset:0;stroke-opacity:1"
       id="path6452"
       sodipodi:type="arc"
       sodipodi:cx="135.50446"
       sodipodi:cy="168.2991"
       sodipodi:rx="1.3229166"
       sodipodi:ry="1.3229166"
       sodipodi:start="0.55747736"
       sodipodi:end="0.55205637"
       sodipodi:open="true"
       d="m 136.62707,168.99899 a 1.3229166,1.3229166 0 0 1 -1.82098,0.42368 1.3229166,1.3229166 0 0 1 -0.42614,-1.82041 1.3229166,1.3229166 0 0 1 1.81982,-0.42861 1.3229166,1.3229166 0 0 1 0.43108,1.81924" />
    <path
       style="display:inline;opacity:1;fill:#ff0001;fill-opacity:1;stroke:#ff0000;stroke-width:0.79374999;stroke-miterlimit:4;stroke-dasharray:none;stroke-dashoffset:0;stroke-opacity:1"
       id="path6424-8"
       sodipodi:type="arc"
       sodipodi:cx="8.3618164"
       sodipodi:cy="95.444199"
       sodipodi:rx="1.3229166"
       sodipodi:ry="1.3229166"
       sodipodi:start="0.55747736"
       sodipodi:end="0.55205637"
       sodipodi:open="true"
       d="M 9.4844334,96.144084 A 1.3229166,1.3229166 0 0 1 7.6634531,96.567763 1.3229166,1.3229166 0 0 1 7.2373065,94.747359 1.3229166,1.3229166 0 0 1 9.0571317,94.318745 1.3229166,1.3229166 0 0 1 9.488211,96.137988" />
    <path
       d="m 16.619634,96.333072 a 1.3229166,1.3229166 0 0 1 -1.82098,0.423679 1.3229166,1.3229166 0 0 1 -0.426147,-1.820405 1.3229166,1.3229166 0 0 1 1.819825,-0.428613 1.3229166,1.3229166 0 0 1 0.431079,1.819243"
       sodipodi:open="true"
       sodipodi:end="0.55205637"
       sodipodi:start="0.55747736"
       sodipodi:ry="1.3229166"
       sodipodi:rx="1.3229166"
       sodipodi:cy="95.633186"
       sodipodi:cx="15.497017"
       sodipodi:type="arc"
       id="path6446-7"
       style="display:inline;opacity:1;fill:#00fc01;fill-opacity:1;stroke:#00ff00;stroke-width:0.79374999;stroke-miterlimit:4;stroke-dasharray:none;stroke-dashoffset:0;stroke-opacity:1" />
    <text
       transform="translate(0,-1.2708333e-6)"
       xml:space="preserve"
       style="font-style:normal;font-variant:normal;font-weight:normal;font-stretch:normal;font-size:5.64444447px;line-height:7.9375px;font-family:'Latin Modern Sans';-inkscape-font-specification:'Latin Modern Sans';font-variant-ligatures:normal;font-variant-position:normal;font-variant-caps:normal;font-variant-numeric:normal;font-variant-alternates:normal;font-feature-settings:normal;text-indent:0;text-align:center;text-decoration:none;text-decoration-line:none;text-decoration-style:solid;text-decoration-color:#000000;letter-spacing:0px;word-spacing:0px;text-transform:none;writing-mode:lr-tb;direction:ltr;text-orientation:mixed;dominant-baseline:auto;baseline-shift:baseline;text-anchor:middle;white-space:normal;shape-padding:0;display:inline;opacity:1;vector-effect:none;fill:#000000;fill-opacity:1;stroke:none;stroke-width:0.26458332px;stroke-linecap:butt;stroke-linejoin:miter;stroke-miterlimit:4;stroke-dasharray:none;stroke-dashoffset:0;stroke-opacity:1"
       x="40.598042"
       y="96.855301"
       id="text6592-6"
       inkscape:transform-center-x="8.5044645"
       inkscape:transform-center-y="-2.8348206"><tspan
         sodipodi:role="line"
         id="tspan6590-8"
         x="40.598042"
         y="96.855301"
         style="stroke-width:0.26458332px">no etiquetados</tspan></text>
  </g>
  <g
     inkscape:groupmode="layer"
     id="layer6"
     inkscape:label="Capa 20"
     style="display:inline"
     transform="translate(1.700893,-73.160177)">
    <path
       style="display:inline;fill:none;fill-rule:evenodd;stroke:#000000;stroke-width:0.79374999;stroke-linecap:butt;stroke-linejoin:miter;stroke-miterlimit:4;stroke-dasharray:3.175, 3.175;stroke-dashoffset:0;stroke-opacity:1"
       d="M 129.69062,73.160177 V 176.53666"
       id="path6505-3-8"
       inkscape:connector-curvature="0"
       sodipodi:nodetypes="cc" />
    <g
       transform="translate(0,-1.2708333e-6)"
       style="display:inline"
       id="g6974">
      <text
         id="text6891-6"
         y="98.764481"
         x="235.13901"
         style="font-style:normal;font-variant:normal;font-weight:normal;font-stretch:normal;font-size:7.05555534px;line-height:7.9375px;font-family:'Latin Modern Sans';-inkscape-font-specification:'Latin Modern Sans';font-variant-ligatures:normal;font-variant-position:normal;font-variant-caps:normal;font-variant-numeric:normal;font-variant-alternates:normal;font-feature-settings:normal;text-indent:0;text-align:center;text-decoration:none;text-decoration-line:none;text-decoration-style:solid;text-decoration-color:#000000;letter-spacing:0px;word-spacing:0px;text-transform:none;writing-mode:lr-tb;direction:ltr;text-orientation:mixed;dominant-baseline:auto;baseline-shift:baseline;text-anchor:middle;white-space:normal;shape-padding:0;display:inline;opacity:1;vector-effect:none;fill:#000000;fill-opacity:1;stroke:none;stroke-width:0.26458332px;stroke-linecap:butt;stroke-linejoin:miter;stroke-miterlimit:4;stroke-dasharray:none;stroke-dashoffset:0;stroke-opacity:1"
         xml:space="preserve"><tspan
           style="font-size:5.64444447px;stroke-width:0.26458332px"
           y="98.764481"
           x="235.13901"
           id="tspan6889-8"
           sodipodi:role="line">front. etiq. + no</tspan></text>
      <path
         sodipodi:nodetypes="cc"
         inkscape:connector-curvature="0"
         id="path6505-7-0"
         d="m 192.28783,97.40929 h 23.2696"
         style="display:inline;fill:none;fill-rule:evenodd;stroke:#000000;stroke-width:0.79374999;stroke-linecap:butt;stroke-linejoin:miter;stroke-miterlimit:4;stroke-dasharray:2.38125, 2.38125;stroke-dashoffset:0;stroke-opacity:1" />
    </g>
  </g>
</svg>
