<?xml version="1.0" encoding="UTF-8" standalone="no"?>
<!-- Created with Inkscape (http://www.inkscape.org/) -->

<svg
   xmlns:dc="http://purl.org/dc/elements/1.1/"
   xmlns:cc="http://creativecommons.org/ns#"
   xmlns:rdf="http://www.w3.org/1999/02/22-rdf-syntax-ns#"
   xmlns:svg="http://www.w3.org/2000/svg"
   xmlns="http://www.w3.org/2000/svg"
   xmlns:sodipodi="http://sodipodi.sourceforge.net/DTD/sodipodi-0.dtd"
   xmlns:inkscape="http://www.inkscape.org/namespaces/inkscape"
   width="119.11206mm"
   height="84.612228mm"
   viewBox="0 0 119.11206 84.612229"
   version="1.1"
   id="svg8"
   sodipodi:docname="digitos.svg"
   inkscape:version="0.92.2 (5c3e80d, 2017-08-06)">
  <defs
     id="defs2" />
  <sodipodi:namedview
     id="base"
     pagecolor="#ffffff"
     bordercolor="#666666"
     borderopacity="1.0"
     inkscape:pageopacity="0.0"
     inkscape:pageshadow="2"
     inkscape:zoom="1.4"
     inkscape:cx="108.1956"
     inkscape:cy="96.454922"
     inkscape:document-units="mm"
     inkscape:current-layer="layer1"
     showgrid="false"
     inkscape:window-width="1920"
     inkscape:window-height="1031"
     inkscape:window-x="1680"
     inkscape:window-y="0"
     inkscape:window-maximized="1" />
  <metadata
     id="metadata5">
    <rdf:RDF>
      <cc:Work
         rdf:about="">
        <dc:format>image/svg+xml</dc:format>
        <dc:type
           rdf:resource="http://purl.org/dc/dcmitype/StillImage" />
      </cc:Work>
    </rdf:RDF>
  </metadata>
  <g
     inkscape:label="Capa 1"
     inkscape:groupmode="layer"
     id="layer1"
     transform="translate(-68.131233,-154.9329)">
    <g
       id="g6711"
       transform="matrix(0.2,0,0,0.2,102.14981,157.79121)">
      <path
         inkscape:connector-curvature="0"
         id="path966-6"
         d="m -154.25171,1.1889243 c -2.41721,0.024 -5.65309,0.52025 -7.9742,1.29088 -1.82573,0.60617 -2.31574,0.92348 -2.40554,1.55546 -0.13591,0.95697 0.3628,0.99049 5.98207,0.40359 4.55372,-0.47562 5.70381,-0.13916 5.88336,1.72186 0.26683,2.76475 -2.54484,6.8587797 -9.60872,13.9924297 -5.17697,5.22813 -7.28874,8.07456 -7.59589,10.23658 -0.31147,2.19249 -0.0633,2.99538 1.15755,3.74448 1.6488,1.0117 3.06776,1.33932 8.38086,1.93424 2.63586,0.29515 5.57311,0.74896 6.52674,1.00873 3.87247,1.05485 5.98644,0.38928 6.37532,-2.00712 0.16018,-0.98711 0.0154,-1.3649 -0.85886,-2.23913 -1.03677,-1.03676 -1.13324,-1.0576 -6.82696,-1.48002 -6.59755,-0.48947 -8.7756,-0.93165 -8.77261,-1.78232 0.003,-1.0953 1.50921,-3.03398 6.20583,-7.98607 7.49543,-7.9031 10.4158,-12.1558097 10.46242,-15.2357597 0.0384,-2.54143 -1.80663,-4.44977 -4.8514,-5.01727 -0.55967,-0.10432 -1.27423,-0.14857 -2.07997,-0.14056 z"
         style="fill:#ff0000;fill-opacity:1;stroke-width:0.35277781" />
      <path
         inkscape:connector-curvature="0"
         id="path6470"
         d="m -99.922489,85.866151 c -2.993791,0.003 -7.347351,0.9246 -9.399431,1.98954 -2.70479,1.40365 -3.3487,3.63738 -1.41388,4.90513 0.7756,0.50822 0.94612,0.50659 1.96474,-0.0202 2.66195,-1.37655 9.423351,-2.07485 10.743541,-1.1095 0.88185,0.64482 0.5465,2.66328 -0.7643,4.59972 -0.5401,0.79789 -3.618131,4.149139 -6.840411,7.447609 -9.91949,10.15406 -10.33245,10.73507 -9.17514,12.91342 0.35004,0.65888 1.1598,1.55505 1.79935,1.99161 1.40068,0.95607 3.77087,1.05214 6.0415,0.24495 4.72932,-1.6812 11.177641,-2.14168 15.238361,-1.08831 2.3423,0.60761 4.69802,0.52194 4.27931,-0.15555 -0.11017,-0.17823 -0.0511,-0.324 0.13177,-0.324 0.18285,-1e-5 0.42558,-0.35655 0.53951,-0.79221 0.29911,-1.14381 -1.23235,-3.26828 -3.03549,-4.21059 -2.44104,-1.27566 -9.58638,-1.29793 -17.010831,-0.0532 l -1.40044,0.23461 1.22423,-1.42833 c 0.67337,-0.78555 2.9708,-2.9154 5.10511,-4.73305 2.134321,-1.81766 5.165041,-4.57504 6.735001,-6.12727 2.47385,-2.445919 2.9133,-3.067519 3.29591,-4.663799 0.57949,-2.41776 0.22799,-4.31028 -1.17978,-6.3531 -1.64166,-2.38222 -3.51313,-3.2715 -6.87863,-3.2675 z"
         style="fill:#000000;stroke-width:0.35277781" />
      <path
         inkscape:connector-curvature="0"
         id="rect6474"
         d="m 322.42759,371.5699 c -1.46662,0.0777 -3.95592,1.35446 -5.54281,2.92283 -1.90495,1.8827 -3.88062,5.3498 -4.99608,8.76742 -1.1735,3.59534 -1.35392,8.52691 -0.37724,10.31409 0.95538,1.74826 2.77286,3.67192 3.95584,4.18735 0.58568,0.25522 2.02573,0.47001 3.20032,0.47802 5.15096,0.0333 9.48095,-4.32625 10.67324,-10.74613 1.34292,-7.23093 0.8772,-9.35458 -2.87475,-13.11288 -1.38909,-1.39147 -2.95439,-2.63742 -3.47835,-2.76831 -0.16219,-0.0405 -0.35065,-0.0535 -0.56017,-0.0424 z m -0.29972,2.91508 c 0.47564,0.0114 0.94855,0.4237 2.21898,1.62523 1.07508,1.01676 2.20781,2.32725 2.51716,2.91195 1.19335,2.25581 0.35989,8.77276 -1.53582,12.00756 -0.98132,1.67447 -2.94916,3.57552 -4.161,4.01989 -3.69387,1.35446 -6.70555,-0.0514 -7.65379,-3.57291 -1.32773,-4.93082 3.33783,-14.86331 7.88893,-16.79485 0.29239,-0.12409 0.50932,-0.20203 0.72554,-0.19687 z"
         style="opacity:1;fill:#000000;fill-opacity:1;stroke:#000000;stroke-width:0.52916664;stroke-miterlimit:4;stroke-dasharray:none;stroke-dashoffset:0;stroke-opacity:1" />
      <path
         inkscape:connector-curvature="0"
         id="path6483"
         d="m -40.624681,156.62617 c -1.67844,-0.0135 -3.50374,0.17213 -4.78523,0.54467 -3.04157,0.88421 -5.98781,3.22904 -6.257,4.97902 -0.17788,1.15641 0.35473,2.5919 1.11207,2.99723 0.97976,0.52434 1.83394,0.1815 2.54405,-1.02061 1.15615,-1.95722 6.98394,-3.53105 9.38805,-2.53524 2.44052,1.01089 2.2632,3.74765 -0.56171,8.66148 -3.00283,5.22331 -9.97175,13.63235 -13.0571,15.75512 -2.769,1.90513 -3.11256,4.34246 -0.80407,5.70611 1.78959,1.05713 3.48215,0.76945 6.20014,-1.0542 2.51994,-1.69079 4.33607,-2.59157 5.22552,-2.59157 0.27966,0 1.40769,0.9362 2.50682,2.08049 1.09913,1.1443 2.42324,2.18458 2.94246,2.312 0.51919,0.12742 1.49957,0.35993 2.17868,0.51625 1.2731,0.29307 2.77402,0.1427 3.29592,-0.33021 0.16345,-0.14814 0.12517,-0.59121 -0.0853,-0.98444 -0.22802,-0.42601 -0.2486,-0.76197 -0.0511,-0.83147 0.18224,-0.0642 -1.44632,-1.96481 -3.61892,-4.22352 -3.32285,-3.45456 -4.20225,-4.17528 -5.53765,-4.53822 -0.8731,-0.23731 -1.80417,-0.49466 -2.06912,-0.57206 -0.33065,-0.0966 -0.0545,-0.61866 0.88162,-1.6645 3.08207,-3.4435 8.4682,-10.8282 9.37305,-12.85141 1.60223,-3.58243 -1.14618,-8.56103 -5.4963,-9.95598 -0.80264,-0.25738 -2.01943,-0.38845 -3.32486,-0.39894 z"
         style="fill:#000000;stroke-width:0.35277781" />
      <path
         inkscape:connector-curvature="0"
         id="path6488"
         d="m -43.698594,233.56347 c -1.45585,0 -2.62118,1.02289 -8.26461,7.25382 -4.14512,4.57657 -4.76803,5.7815 -3.42511,6.62854 0.9334,0.58881 2.58659,-0.39651 5.9123,-3.52381 l 2.94968,-2.774 -0.25064,3.65198 c -0.42198,6.14042 -1.38554,10.19443 -3.34449,14.07511 -0.99184,1.96494 -1.18525,2.14048 -3.15227,2.8577 -2.8329,1.03291 -3.94756,1.95494 -3.94756,3.26492 0,0.75305 0.22125,1.13311 0.79375,1.36322 0.43651,0.17548 0.82071,0.32877 0.85371,0.34107 0.0329,0.0123 1.69986,-0.37194 3.70416,-0.85421 2.11635,-0.50922 5.74024,-1.02628 8.64341,-1.233 5.60774,-0.39929 6.52439,-0.64124 7.37939,-1.94614 0.47717,-0.72828 0.51927,-1.08505 0.20722,-1.76991 -0.53874,-1.18242 -1.72664,-1.38907 -5.66994,-0.98651 -1.86336,0.19024 -3.49544,0.29043 -3.62665,0.22273 -0.13123,-0.0677 -0.0856,-0.63656 0.10129,-1.26453 0.94657,-3.18123 3.95147,-18.42581 4.09845,-20.79201 0.16213,-2.60997 0.13086,-2.75271 -0.80098,-3.61631 -0.6414,-0.59443 -1.37356,-0.89866 -2.16111,-0.89866 z"
         style="fill:#000000;stroke-width:0.35277781" />
      <path
         inkscape:connector-curvature="0"
         id="path6493"
         d="m 62.225549,329.03404 c -0.9729,0.0114 -2.10818,1.0327 -4.69792,3.74809 -1.96768,2.06314 -4.49072,4.45372 -5.60636,5.31233 -1.48931,1.14618 -2.02832,1.79021 -2.02832,2.4226 0,0.74633 0.16227,0.86093 1.21388,0.86093 0.91953,0 1.79565,-0.44427 3.61579,-1.83452 1.32131,-1.00921 2.61218,-2.04142 2.86856,-2.2934 0.83246,-0.81812 1.16208,-0.51011 0.92657,0.86507 -1.51466,8.84437 -3.46683,15.79315 -5.30354,18.87946 -1.6528,2.77728 -1.96551,4.77586 -0.71313,4.55631 0.41457,-0.0727 0.54829,0.0336 0.38187,0.30283 -0.17971,0.29078 -0.0328,0.34327 0.49353,0.17622 0.41232,-0.1309 0.7498,-0.0876 0.7498,0.0966 0,0.34245 1.79869,-0.17538 2.85874,-0.82321 0.87392,-0.53406 1.37459,-1.74614 1.37459,-3.32796 0,-0.79244 0.30676,-2.58886 0.68162,-3.992 2.99403,-11.20668 5.31545,-20.92857 5.31545,-22.25962 0,-1.24767 -0.17039,-1.71379 -0.78393,-2.14355 -0.49652,-0.34777 -0.90498,-0.55141 -1.3472,-0.54621 z"
         style="fill:#000000;stroke-width:0.35277781" />
      <path
         inkscape:connector-curvature="0"
         id="path6498"
         d="m -19.388141,319.13148 c -1.23738,-0.049 -2.88991,1.40956 -7.20937,5.89525 -5.993103,6.22368 -6.582253,7.00932 -6.029613,8.04189 0.74276,1.38788 2.12582,0.91302 5.256533,-1.80506 0.8483,-0.73651 1.66637,-1.26284 1.81745,-1.16944 0.27863,0.17219 -1.32541,5.52593 -4.796083,16.00781 -1.91315,5.77795 -2.28862,7.99034 -1.4914,8.78758 0.56668,0.56665 2.15373,0.53496 3.606,-0.0718 1.319613,-0.55138 2.196123,-2.42831 1.824683,-3.90829 -0.48956,-1.95059 2.01326,-10.89321 5.33352,-19.0562 1.26272,-3.10444 2.6683,-6.57055 3.12386,-7.70238 0.96808,-2.40522 0.83333,-3.81986 -0.44443,-4.65707 -0.33083,-0.21678 -0.64468,-0.34852 -0.99115,-0.36226 z"
         style="fill:#000000;stroke-width:0.35277781" />
      <path
         sodipodi:nodetypes="scsccccccssccsccccs"
         inkscape:connector-curvature="0"
         id="path6503"
         d="m -120.18472,294.67146 c -1.46809,0 -2.00657,0.64342 -4.91289,5.87354 -1.51209,2.72106 -1.98953,3.92782 -1.98953,5.02709 0,1.4914 0.20278,1.65114 1.89807,1.4981 0.59359,-0.0536 0.63989,0.11912 0.4377,1.6433 -0.4512,3.40145 -2.35051,10.3485 -3.3941,12.41579 -0.5878,1.16445 -0.94721,2.11935 -0.79891,2.12235 0.14829,0.003 0.0317,0.15917 -0.25943,0.34726 -0.29101,0.18809 -1.20877,0.34427 -2.03967,0.34727 -2.07881,0.007 -3.95737,0.83533 -3.95737,1.74356 0,1.3399 1.39427,1.80416 6.40167,2.13165 6.2624,0.40957 11.09673,0.2072 12.56202,-0.52606 1.6351,-0.81819 2.00289,-1.66493 1.17099,-2.69338 -0.6159,-0.7614 -0.97655,-0.83616 -4.58216,-0.9462 -2.1527,-0.0657 -3.84765,-0.22746 -3.76565,-0.35966 0.0817,-0.13219 0.56332,-2.61817 1.07021,-5.52473 0.9915,-5.68614 2.1299,-10.41508 3.7574,-15.60783 1.2087,-3.85632 1.25725,-4.81261 0.32245,-6.34587 -0.57208,-0.93831 -0.92081,-1.14618 -1.9208,-1.14618 z"
         style="fill:#ff0000;fill-opacity:1;stroke-width:0.35277781" />
      <path
         sodipodi:nodetypes="ccccscsssccccccccccccscccccsssccscccccccccc"
         inkscape:connector-curvature="0"
         id="path6509"
         d="m 108.57734,17.242943 c -0.97597,0.0104 -1.98263,0.15958 -2.99622,0.45424 -2.27889,0.66249 -3.19662,1.48629 -4.77904,4.29018 -1.685817,2.98713 -1.404907,6.7112 0.73382,9.72188 0.6826,0.96092 0.8867,2.06241 0.38188,2.06241 -0.54886,0 -4.034527,4.94415 -5.395517,7.65328 -0.77086,1.53446 -1.37668,3.25418 -1.37668,3.90777 0,2.87432 2.50386,5.38587 6.173787,6.19342 1.65812,0.36486 5.83144,0.19584 7.51583,-0.30437 4.65183,-1.38144 8.25288,-5.32656 8.30749,-9.10126 0.0225,-1.54803 -0.17703,-2.13403 -1.30122,-3.82767 -0.7634,-1.15012 -2.28729,-2.72308 -3.58685,-3.70158 -1.24288,-0.93583 -2.26681,-1.86608 -2.27584,-2.06706 -0.009,-0.20099 1.0749,-1.25702 2.40866,-2.34663 3.26552,-2.66777 4.34547,-4.1459 4.54494,-6.22184 0.14258,-1.4839 0.0254,-1.85009 -1.03974,-3.24838 -1.73569,-2.27845 -4.38745,-3.49546 -7.3153,-3.46439 z m -0.58706,4.16822 c 0.93149,-0.03 1.78917,0.18358 2.27634,0.67077 0.46104,0.46101 0.65559,0.97251 0.51782,1.36322 -0.29162,0.82684 -1.72813,2.8158 -3.06237,4.24108 -0.59028,0.63059 -1.19232,1.1467 -1.33842,1.1467 -0.30131,0 -1.77593,-1.90321 -2.374,-3.06389 -0.6359,-1.23412 -0.46913,-2.02688 0.65318,-3.10214 0.81036,-0.77636 2.12981,-1.21719 3.32745,-1.25574 z m -2.88613,14.74122 c 0.66842,-0.003 1.597,0.71649 3.3047,2.35025 2.04208,1.95363 2.25931,2.29726 2.25931,3.57549 0,1.74655 -0.65607,2.72143 -2.574,3.82509 -1.72559,0.99298 -3.79857,1.33958 -5.52268,0.92294 -2.37376,-0.57363 -2.720627,-2.26553 -1.0759,-5.24929 0.57497,-1.04303 0.94454,-2.06018 0.82116,-2.25981 -0.12411,-0.2008 -0.0532,-0.25702 0.15865,-0.12609 0.38354,0.23704 0.93384,-0.34718 0.95136,-1.00976 0.005,-0.19403 0.2944,-0.7721 0.64286,-1.28519 0.32602,-0.4801 0.63349,-0.74193 1.03454,-0.74363 z m -0.1452,0.29818 c -0.13385,0.0187 -0.45823,0.34505 -0.77981,0.7953 l -0.66818,0.93534 0.82476,-0.78393 c 0.45374,-0.43117 0.75438,-0.85194 0.66818,-0.93534 -0.0109,-0.0104 -0.0259,-0.014 -0.045,-0.0114 z"
         style="fill:#ff0000;fill-opacity:1;stroke-width:0.35277781" />
      <path
         inkscape:connector-curvature="0"
         id="path6514"
         d="m -8.0004186,35.694324 c -5.7642604,0.0562 -10.6010304,2.71885 -12.1046904,6.76548 -0.5966,1.6056 -0.5961,1.74532 0.0135,3.3414 0.34988,0.91617 1.29955,2.38477 2.11047,3.26336 1.33017,1.44118 1.75451,2.36634 2.51148,5.4777 0.13642,0.56073 -0.24902,0.95222 -1.87793,1.90583 -4.96644,2.90748 -7.15584,5.72696 -7.16185,9.22425 -0.007,4.28151 3.39394,6.85932 10.22728,7.75094 1.06717,0.13923 3.86004,0.27382 6.2058304,0.29922 4.58491,0.0497 8.26069003,-0.63161 11.03188,-2.04536 1.59687,-0.81465 3.92896,-3.06036 3.92896,-3.78323 0,-0.2613 0.1515,-0.47492 0.33642,-0.47492 0.37602,0 1.0832,-2.26216 1.04801,-3.35172 -0.0222,-0.68384 -0.0308,-0.68416 -0.28887,-0.0254 -0.24712,0.63074 -0.28345,0.63463 -0.50437,0.0589 -0.13095,-0.34123 -0.23823,-0.91517 -0.23823,-1.27537 0,-0.36021 -0.43046,-1.34612 -0.95653,-2.19107 -0.90815,-1.45865 -1.87872,-2.30381 -5.29528997,-4.61058 l -1.48931,-1.00562 1.71203997,-1.71205 c 1.78199,-1.78199 3.41955,-3.87883 3.02927,-3.87883 -0.12409,0 0.0238,-0.24959 0.32866,-0.55449 0.32943,-0.32944 0.55232,-1.15229 0.54933,-2.0283 -0.004,-1.08172 -0.0968,-1.33347 -0.3478,-0.94516 -0.25722,0.398 -0.34501,0.22328 -0.35501,-0.70538 -0.0312,-2.93663 -2.70735,-6.43526 -6.2606,-8.18452 -1.86857,-0.91989 -2.8947,-1.18569 -4.98779,-1.29139 -0.39182,-0.0198 -0.78052,-0.0275 -1.16481,-0.0238 z m -0.73432,6.86366 c 1.89142,-0.009 2.32129,0.11494 3.098,0.8909 0.49599,0.4955 0.97968,1.448 1.07487,2.11667 0.18725,1.31452 -0.15904,1.86831 -2.25049,3.5972 -0.64548,0.53357 -1.28066,0.95174 -1.41129,0.92914 -0.96403,-0.16677 -5.5579404,-2.902 -5.7510904,-3.42408 -0.34999,-0.94617 0.5937,-2.63908 1.90791,-3.42253 0.78746,-0.46945 1.81039,-0.6803 3.3320904,-0.6873 z m -0.42892,17.09975 c 0.93205,0 4.07845,1.91399 5.41002,3.29125 1.5626,1.61621 1.38591,2.41081 -0.65371,2.94193 -0.87141,0.22694 -2.29878,0.4113 -3.1719,0.40929 -1.7222,-0.004 -6.4098804,-0.77566 -7.0269704,-1.15703 -0.54231,-0.33517 -0.47201,-1.13842 0.18759,-2.14508 0.65424,-0.99851 4.33838,-3.34036 5.2549704,-3.34036 z"
         style="fill:#000000;stroke-width:0.35277781" />
      <path
         inkscape:connector-curvature="0"
         id="path6519"
         d="m 66.831263,90.319405 c -2.34712,-0.009 -4.1656,1.01203 -4.71702,2.64893 -0.19407,0.57608 -0.49509,1.14903 -0.66871,1.27331 -0.77549,0.55509 1.02738,5.28142 2.93214,7.686345 l 1.03299,1.30379 -1.90323,1.51876 c -4.28771,3.42141 -6.87091,6.79043 -6.87091,8.96173 0,1.89127 2.18641,3.55005 5.3635,4.06953 3.25794,0.53271 6.9328,-0.38208 9.7596,-2.42983 1.52056,-1.10148 2.87383,-3.30292 2.86081,-4.65346 -0.014,-1.4655 -1.26976,-3.6209 -3.04424,-5.22499 -0.96131,-0.869 -1.85902,-1.76422 -1.99472,-1.98903 -0.15452,-0.25599 0.64407,-0.96415 2.13579,-1.89498 3.47901,-2.170895 4.32221,-3.055925 4.32221,-4.535635 0,-1.05175 -0.32205,-1.55303 -2.12545,-3.30677 -2.59376,-2.52237 -4.44349,-3.41741 -7.08276,-3.4277 z m 0.12194,2.50836 c 0.96489,0.0145 1.99986,0.21682 2.83083,0.6191 2.1567,1.04404 3.22276,2.24618 2.95124,3.32795 -0.11919,0.47493 -1.29801,1.74366 -2.64014,2.84168 -1.33358,1.091055 -2.49621,1.983865 -2.58382,1.983865 -0.25013,0 -1.86147,-1.823505 -2.72851,-3.087655 -0.952,-1.38806 -1.2773,-3.9307 -0.61804,-4.83227 0.42354,-0.57925 1.54792,-0.87127 2.78844,-0.85267 z m 0.26768,12.300545 c 0.74928,0 2.98045,2.39205 3.76412,4.0354 0.35386,0.74205 0.47469,1.53652 0.32454,2.13477 -0.33761,1.34506 -2.14871,2.87374 -3.93827,3.32433 -1.80353,0.4541 -4.46389,0.44955 -6.05597,-0.0103 -1.51291,-0.43701 -1.86835,-1.73998 -0.94154,-3.45199 0.8051,-1.48715 5.96423,-6.03219 6.84712,-6.03219 z"
         style="fill:#000000;stroke-width:0.35277781" />
      <path
         inkscape:connector-curvature="0"
         id="path6529"
         d="m 43.646213,242.21526 c -1.55755,0.0185 -3.65559,0.37663 -6.6094,1.07849 -3.26371,0.7755 -5.56241,1.10517 -7.97163,1.14255 -3.76338,0.0585 -4.65889,0.44831 -4.48188,1.9513 0.15089,1.28204 1.9939,2.39448 4.43589,2.67788 1.5289,0.17745 3.14881,0.0109 6.51537,-0.67075 5.09328,-1.03129 5.20642,-1.04293 5.20642,-0.53332 0,0.42916 -3.36056,8.39592 -5.19917,12.32588 -0.68083,1.45521 -1.74982,3.7637 -2.37559,5.12993 -0.62574,1.36623 -2.35225,4.49971 -3.83696,6.96338 -3.0067,4.98917 -3.27631,6.09886 -1.76993,7.2838 1.05942,0.8333 1.37692,0.87455 2.83602,0.36586 1.12731,-0.39296 1.61012,-1.25772 2.94608,-5.27873 1.34361,-4.04418 8.57451,-17.96827 11.99978,-23.10712 3.36714,-5.05169 3.6934,-6.68623 1.67018,-8.36901 -0.79042,-0.65738 -1.80761,-0.97864 -3.36518,-0.96014 z"
         style="fill:#000000;stroke-width:0.35277781" />
      <path
         inkscape:connector-curvature="0"
         id="path6535"
         d="m 95.237599,156.91681 c -4.01106,0.0252 -8.85865,1.46297 -10.14098,3.00808 -0.24447,0.29455 -0.39259,0.90152 -0.32917,1.34876 0.097,0.68441 0.3111,0.80469 1.3503,0.76119 0.67911,-0.0284 2.50489,-0.38401 4.05713,-0.79065 3.32999,-0.87236 5.04293,-0.93206 6.71586,-0.23306 4.101861,1.71388 1.23121,8.60571 -4.87722,11.70833 -1.96392,0.99753 -2.60414,2.06503 -2.11617,3.52898 0.57158,1.71468 2.17956,2.35511 5.74953,2.2903 2.48716,-0.0451 3.2299,0.0616 3.70004,0.53176 2.000571,2.00058 1.485531,5.84221 -1.11416,8.30905 -1.56583,1.48582 -3.81521,2.2965 -9.05576,3.2644 -6.2769,1.1593 -7.88802,1.57674 -8.37986,2.16938 -0.97716,1.17738 0.44874,1.93202 4.8731,2.57968 3.08123,0.45104 4.37801,0.43038 7.2073,-0.11523 3.8141,-0.73553 5.84258,-1.51341 8.453231,-3.24115 5.45385,-3.6094 7.22045,-8.32749 4.9625,-13.25346 -1.14412,-2.49602 -2.09048,-3.62781 -4.03593,-4.82658 -0.72761,-0.44832 -1.32292,-0.89111 -1.32292,-0.98391 0,-0.0928 0.55676,-0.89748 1.23714,-1.78852 2.31846,-3.03642 2.8742,-6.78665 1.45262,-9.80302 -1.51562,-3.21585 -3.913911,-4.49233 -8.386581,-4.46433 z"
         style="fill:#000000;stroke-width:0.35277781" />
      <path
         inkscape:connector-curvature="0"
         id="path6540"
         d="m 291.47017,223.36937 c -5.82128,0.11155 -10.26165,4.72705 -10.17148,10.84792 0.0487,3.30986 1.47947,5.6382 4.37184,7.11378 1.2945,0.6604 3.76582,0.85055 4.93819,0.38033 0.56136,-0.22516 4.26415,-3.4355 6.86469,-5.95209 0.67823,-0.65631 1.25701,-0.97496 1.38753,-0.76377 0.48842,0.7903 -0.72443,12.71881 -1.63814,16.11013 -1.92712,7.15259 -5.21822,10.30724 -12.6101,12.08659 -1.04116,0.25064 -1.60721,0.60778 -1.8035,1.13843 -0.42982,1.16189 0.21304,2.53402 1.48362,3.16674 1.95419,0.97317 3.3627,0.75867 6.25441,-0.95239 1.45116,-0.85868 3.53827,-2.4433 4.63796,-3.52177 3.90242,-3.82703 5.72442,-8.01602 6.99492,-16.08325 0.41251,-2.61937 1.13747,-6.78788 1.61076,-9.26298 0.96964,-5.07113 1.00189,-5.55881 0.49196,-7.39491 -0.54369,-1.95765 -1.94212,-3.45044 -3.23236,-3.45044 -0.69379,0 -1.50918,-0.38699 -2.32442,-1.10277 -1.69979,-1.49244 -3.24792,-2.08386 -6.07404,-2.32079 -0.39944,-0.0335 -0.79375,-0.0462 -1.18184,-0.0388 z m 2.63136,5.04982 c 1.88939,0 3.56783,0.13532 3.72949,0.30076 0.47588,0.48708 -4.64886,5.02547 -7.00267,6.20169 -2.31455,1.15659 -2.93151,1.26777 -3.90417,0.70125 -1.47576,-0.85956 -0.10535,-4.65908 2.24018,-6.21048 1.38882,-0.91857 1.76082,-0.99322 4.93717,-0.99322 z"
         style="fill:#000000;stroke-width:0.35277781" />
      <path
         inkscape:connector-curvature="0"
         id="path6545"
         d="m 400.94719,218.11559 c -1.0491,0.0103 -1.52577,0.20484 -2.16471,0.80463 -0.78931,0.74091 -1.02526,0.79872 -1.8097,0.4413 -4.91284,-2.23843 -12.30342,4.07805 -12.79975,10.93991 -0.24471,3.38315 1.79525,6.43752 5.65288,8.46407 1.96839,1.03405 5.82319,1.15107 6.7691,0.20516 0.33956,-0.33954 0.74046,-0.61754 0.8904,-0.61754 0.14994,0 0.92689,-0.66101 1.72701,-1.46915 1.2776,-1.29035 1.4854,-1.39097 1.70326,-0.8232 0.4264,1.1112 -0.48752,4.32962 -1.77819,6.26163 -2.07483,3.10592 -5.12746,4.61791 -10.96626,5.43221 -2.13164,0.29732 -4.16444,0.69499 -4.51702,0.88369 -0.9199,0.49231 -2.01181,2.4266 -2.01279,3.56669 -0.003,1.31606 1.9531,3.40733 3.53208,3.77859 2.27097,0.53398 5.0881,0.36534 8.28477,-0.49609 2.99648,-0.80749 6.03152,-1.92101 5.31905,-1.95131 -0.17881,-0.008 0.37719,-0.48069 1.23505,-1.05161 1.75154,-1.16565 3.6372,-2.88433 4.82298,-4.3956 0.43656,-0.55639 0.79391,-0.87138 0.79425,-0.69969 0.003,0.57044 2.1545,-3.76291 3.05718,-6.15313 0.762,-2.01779 0.88482,-2.90361 0.86043,-6.20582 -0.0467,-6.32632 -1.18285,-11.02686 -3.3936,-14.04049 -1.6079,-2.19181 -2.61385,-2.80323 -4.71961,-2.86803 -0.17539,-0.005 -0.33692,-0.008 -0.48681,-0.006 z m -5.23324,5.25034 c 0.1094,0.0114 0.17901,0.1302 0.26249,0.3478 0.24003,0.62547 -1.30313,4.51501 -2.49029,6.2766 -0.41727,0.61923 -1.0305,1.17822 -1.36321,1.2423 -1.02547,0.19748 -0.76306,-2.18591 0.50229,-4.55994 0.60912,-1.14281 1.21422,-2.0779 1.34463,-2.0779 0.13042,0 0.58637,-0.32565 1.01336,-0.72345 0.38396,-0.35772 0.59005,-0.5202 0.73073,-0.50541 z"
         style="fill:#ff0000;fill-opacity:1;stroke-width:0.35277781" />
      <path
         inkscape:connector-curvature="0"
         id="path6550"
         d="m 244.46137,304.90268 c -0.46726,0.0306 -0.87837,0.2921 -1.10691,0.79375 -0.32444,0.71202 -0.53224,0.82293 -1.03767,0.55242 -0.97589,-0.52229 -2.8969,-0.40127 -3.86334,0.24339 -4.45305,2.97042 -6.48936,7.82325 -4.4204,10.53581 1.37962,1.80875 4.6391,2.94312 5.68235,1.97766 0.18431,-0.17061 0.90668,-0.49268 1.60557,-0.71573 1.42561,-0.45495 3.2425,-1.96752 3.62821,-3.02101 0.19738,-0.53909 0.32052,-0.58907 0.54726,-0.2222 0.23175,0.375 0.37309,0.3365 0.68006,-0.18605 0.33576,-0.57153 0.43503,-0.5892 0.74517,-0.13073 0.68374,1.01073 1.13372,3.01461 1.31826,5.87303 0.16566,2.56583 0.0881,3.08719 -0.72244,4.85757 -1.2092,2.64131 -3.89895,5.22465 -6.49314,6.23633 -1.53585,0.59894 -2.99937,0.82992 -5.98929,0.94618 -2.86904,0.11157 -4.07266,0.29382 -4.37907,0.66302 -0.56944,0.68612 0.26577,1.51966 1.8588,1.85468 1.38322,0.29085 4.4023,0.1135 5.4188,-0.31835 0.38807,-0.16486 1.20994,-0.3859 1.82624,-0.49091 2.02726,-0.34549 4.17136,-1.6083 6.57016,-3.86953 1.29984,-1.22534 2.36365,-2.39371 2.36365,-2.59675 0,-0.20302 0.32017,-0.58698 0.7116,-0.85318 0.49342,-0.33557 0.8768,-1.28378 1.25005,-3.09232 0.48477,-2.34876 0.48318,-2.87411 -0.013,-5.27306 -0.91995,-4.44834 -3.24418,-11.24186 -4.36459,-12.75633 -0.52131,-0.70464 -1.21568,-1.04704 -1.81642,-1.00769 z m -1.81695,2.81741 c 0.51604,-0.009 0.8078,0.34631 1.26193,1.18959 0.58613,1.08834 0.61278,1.40994 0.22376,2.70836 -0.58859,1.96456 -1.33205,3.04128 -2.52698,3.65921 -0.54362,0.28112 -1.75861,0.51107 -2.69957,0.51107 -2.78247,0 -3.20109,-1.01507 -1.61851,-3.92276 0.94755,-1.74099 2.29364,-2.97461 4.10466,-3.76204 0.55449,-0.24108 0.94507,-0.37795 1.25471,-0.38343 z"
         style="fill:#000000;stroke-width:0.35277781" />
      <path
         inkscape:connector-curvature="0"
         id="path6560"
         d="m 252.92193,371.68116 c -1.34318,-0.0376 -3.34237,0.45049 -7.63415,1.75131 -5.95964,1.80633 -6.75693,4.00596 -1.45212,4.00596 h 2.12186 l -1.01442,2.04484 c -1.69944,3.42522 -2.54132,7.41552 -2.74455,13.01264 -0.1951,5.37446 0.0323,6.92077 1.48469,10.09602 1.13903,2.4902 2.84549,4.10453 5.54693,5.24671 2.61933,1.10746 2.65179,1.112 4.20698,0.60927 4.93647,-1.59573 7.52274,-4.87176 9.44955,-11.97085 0.7676,-2.82811 1.81983,-10.4258 1.80972,-13.06535 -0.0193,-5.02397 -3.25432,-9.31665 -8.11993,-10.77402 -1.06715,-0.31964 -2.17805,-0.65918 -2.46909,-0.75448 -0.36248,-0.11866 -0.73774,-0.18953 -1.18547,-0.20205 z m -1.89547,5.75727 h 1.81848 c 2.63157,0 4.74429,1.15878 5.78879,3.175 0.74202,1.43234 0.80452,1.91489 0.64079,4.93872 -0.32062,5.92164 -2.68652,12.9096 -5.32008,15.71273 -1.68844,1.79714 -2.44702,2.06517 -3.97393,1.40509 -1.4164,-0.61233 -2.74495,-3.13194 -3.07319,-5.82859 -0.49091,-4.03291 1.01253,-12.37989 3.06596,-17.0217 z"
         style="fill:#000000;stroke-width:0.35277781" />
      <path
         inkscape:connector-curvature="0"
         id="path6565"
         d="m 260.30531,-6.9875065 c -0.62457,0.0178 -1.29476,0.75222 -2.49648,2.57142 -1.95662,2.96195 -8.89481,16.1452995 -9.60871,18.2572895 -0.4273,1.26308 -0.43212,1.63975 -0.031,2.41535 1.01799,1.96853 2.51862,2.43568 8.80152,2.74092 l 4.58576,0.22273 -0.0744,1.76371 c -0.041,0.97014 -0.47736,3.10174 -0.96996,4.73666 -1.12175,3.72297 -1.11919,4.38513 0.0201,5.28133 0.89805,0.70639 2.36045,0.80465 3.30369,0.22169 0.84635,-0.52307 1.7625,-3.17173 1.7725,-5.12423 0.009,-1.7656 0.5439,-5.94718 0.79272,-6.196 0.0566,-0.0565 1.1843,0.12389 2.50629,0.40101 2.3491,0.49241 4.11501,0.38922 4.11501,-0.2403 0,-0.17299 0.22794,-0.31471 0.50694,-0.31471 0.66903,0 0.59018,-1.39338 -0.12763,-2.25361 -0.8064,-0.96636 -2.5949,-1.62677 -4.40439,-1.62677 -0.86791,0 -1.67434,-0.15613 -1.79216,-0.34675 -0.11779,-0.19063 0.0977,-2.13498 0.47906,-4.32118 0.38129,-2.1862095 0.78967,-5.0405895 0.90744,-6.3427695 0.20302,-2.24536 0.16859,-2.39725 -0.66508,-2.94349 -0.65289,-0.42779 -1.12617,-0.49398 -1.83917,-0.25631 -1.67109,0.55703 -2.23838,1.76053 -2.63499,5.58622 -0.20008,1.93003 -0.47231,4.4613195 -0.6046,5.6254995 l -0.24029,2.11666 -2.42724,-0.0574 c -2.80852,-0.0667 -6.83178,-0.75935 -7.11999,-1.22576 -0.3447,-0.55764 0.9121,-3.8197495 3.9238,-10.1823295 3.76325,-7.95044 4.52228,-9.9302 3.94859,-10.30118 -0.21606,-0.13972 -0.41915,-0.21368 -0.62736,-0.20774 z"
         style="fill:#ff0000;fill-opacity:1;stroke-width:0.35277781" />
      <path
         inkscape:connector-curvature="0"
         id="rect6567"
         d="m 158.29104,264.2402 c -3.42514,0 -8.35972,3.46435 -11.69127,8.20829 -2.0637,2.93858 -2.90021,5.05368 -3.68195,9.30744 l -0.58549,3.18533 0.89453,2.7373 c 1.7999,5.51092 5.34627,9.34182 9.64178,10.41487 1.77396,0.44315 4.81939,0.1445 6.59805,-0.6475 2.86248,-1.27463 5.16163,-4.60893 5.68698,-8.24704 1.03759,-7.1853 -5.50428,-11.49071 -14.0689,-9.25991 -2.79284,0.72744 -2.82572,0.71855 -2.59675,-0.69246 0.68635,-4.22951 5.3236,-9.93359 9.8335,-12.09538 1.29508,-0.62079 2.44766,-1.27841 2.56109,-1.46193 0.4318,-0.69867 -0.91022,-1.44901 -2.59157,-1.44901 z m -5.564,20.65352 c 3.01202,-0.0211 5.15406,0.67416 5.80379,1.92392 0.92557,1.7804 -0.20529,5.22805 -2.02313,6.16809 -0.56917,0.29433 -1.32049,0.5289 -1.66968,0.5209 -1.12144,-0.0244 -2.79451,-0.93466 -4.07932,-2.2195 -1.24026,-1.24025 -2.90939,-4.90169 -2.60088,-5.7056 0.0971,-0.25315 1.37065,-0.50356 3.22717,-0.63458 0.464,-0.0328 0.91176,-0.0502 1.34205,-0.0532 z"
         style="opacity:1;fill:#000000;fill-opacity:1;stroke:#080000;stroke-width:0.52916664;stroke-miterlimit:4;stroke-dasharray:none;stroke-dashoffset:0;stroke-opacity:1" />
      <path
         inkscape:connector-curvature="0"
         id="path6572"
         d="m 204.53779,67.214449 c -0.36219,0.0138 -0.68641,0.15377 -0.90228,0.43204 -0.1882,0.24251 -0.62055,1.31408 -0.96068,2.38125 -0.74538,2.33947 -1.09894,3.07154 -4.42245,9.15654 -3.0267,5.54167 -3.41964,7.26501 -2.13114,9.34982 1.40499,2.27343 2.1576,2.46962 9.97458,2.59828 6.2384,0.10269 6.96238,0.17632 6.96238,0.70538 -0.007,0.83741 -1.47143,5.38322 -2.79673,8.684241 -1.5513,3.86384 -1.45928,6.19109 0.29662,7.48532 1.2953,0.9547 2.60784,-0.76189 3.37654,-4.41576 0.50199,-2.38646 1.88873,-8.078261 2.67684,-10.986401 0.259,-0.9557 0.65328,-1.38067 1.74458,-1.88103 1.62362,-0.74438 1.88466,-1.87743 0.70435,-3.05768 -0.38809,-0.38807 -0.70538,-0.84923 -0.70538,-1.02476 0,-0.17552 0.72141,-2.5169 1.60301,-5.20329 2.30891,-7.03607 2.40815,-8.96356 0.43666,-8.46874 -1.00949,0.25337 -2.07118,2.25037 -3.97909,7.48533 -0.703,1.92892 -1.41245,3.83919 -1.57665,4.24521 -0.27218,0.67268 -0.66982,0.757 -4.47673,0.94777 -3.74959,0.18788 -8.72233,-0.11512 -9.16585,-0.55864 -0.093,-0.093 1.0138,-2.46915 2.4593,-5.28029 3.42299,-6.65639 4.1466,-9.80898 2.67941,-11.67421 -0.48506,-0.61667 -1.19367,-0.94335 -1.79729,-0.92038 z"
         style="fill:#000000;stroke-width:0.35277781" />
      <path
         inkscape:connector-curvature="0"
         id="path6577"
         d="m 256.21333,141.79165 c -0.20754,0.0127 -0.575,0.75235 -0.73483,1.70945 l -0.20413,1.2237 0.53795,-0.88212 c 0.29591,-0.48506 0.54335,-1.19105 0.55036,-1.5694 0.006,-0.3428 -0.055,-0.48737 -0.14935,-0.48163 z m 11.81168,3.10936 c -0.96377,0 -1.58324,1.08924 -2.60966,4.58629 -2.03753,6.9419 -2.47624,8.31265 -2.79413,8.73125 -0.42799,0.56356 -12.2432,0.64085 -12.2432,0.0801 0,-0.19849 0.71244,-1.58737 1.58337,-3.08663 0.87093,-1.49926 1.91347,-3.66504 2.31667,-4.81261 0.84156,-2.39541 1.34503,-6.08391 0.68987,-5.05447 -0.21704,0.34107 -0.28125,0.81732 -0.14264,1.05833 0.13865,0.24098 0.11851,0.31697 -0.0444,0.16897 -0.16293,-0.14799 -0.72509,0.73691 -1.24955,1.9663 -1.13101,2.65123 -3.85889,7.24712 -5.50561,9.27539 -1.36263,1.67839 -1.49394,2.76717 -0.40359,3.35071 0.75486,0.40397 7.53369,0.25059 12.19253,-0.27596 1.44425,-0.16322 1.85372,-0.10165 1.85571,0.28009 0.006,0.81891 -4.66524,12.39642 -5.54797,13.75161 -0.91652,1.407 -0.78883,2.32193 0.39015,2.7931 1.4826,0.59254 2.90325,-0.34036 3.2303,-2.12079 0.53713,-2.92415 1.38398,-5.74604 3.00135,-10.0025 1.57785,-4.15245 1.93472,-4.81417 2.59829,-4.81417 0.42312,0 0.95618,0.18725 1.18444,0.41548 0.31813,0.31816 0.58184,0.26379 1.12913,-0.23151 0.39264,-0.35531 0.71364,-0.84791 0.71364,-1.09501 0,-0.73059 -1.04363,-1.55805 -1.96525,-1.55805 -0.47122,0 -0.8568,-0.14727 -0.8568,-0.32711 0,-0.31874 2.07148,-8.14734 2.80654,-10.60659 0.55049,-1.84165 0.46646,-2.47221 -0.32917,-2.47221 z"
         style="fill:#000000;stroke-width:0.35277781" />
      <path
         sodipodi:nodetypes="cc"
         inkscape:connector-curvature="0"
         id="path6585"
         d="m -145.9024,39.673373 45.979911,46.192758"
         style="fill:none;fill-rule:evenodd;stroke:#0000ff;stroke-width:2.64583325;stroke-linecap:butt;stroke-linejoin:miter;stroke-miterlimit:4;stroke-dasharray:none;stroke-opacity:1" />
      <path
         style="fill:none;fill-rule:evenodd;stroke:#0000ff;stroke-width:2.64583325;stroke-linecap:butt;stroke-linejoin:miter;stroke-miterlimit:4;stroke-dasharray:none;stroke-opacity:1"
         d="m -98.2774,124.34004 45.979911,46.19276"
         id="path6587"
         inkscape:connector-curvature="0"
         sodipodi:nodetypes="cc" />
      <path
         sodipodi:nodetypes="cc"
         inkscape:connector-curvature="0"
         id="path6589"
         d="M -25.705971,197.66742 20.27394,243.86018"
         style="fill:none;fill-rule:evenodd;stroke:#0000ff;stroke-width:2.64583325;stroke-linecap:butt;stroke-linejoin:miter;stroke-miterlimit:4;stroke-dasharray:none;stroke-opacity:1" />
      <path
         style="fill:none;fill-rule:evenodd;stroke:#0000ff;stroke-width:2.64583325;stroke-linecap:butt;stroke-linejoin:miter;stroke-miterlimit:4;stroke-dasharray:none;stroke-opacity:1"
         d="m -33.265495,252.85194 58.075149,10.663"
         id="path6591"
         inkscape:connector-curvature="0"
         sodipodi:nodetypes="cc" />
      <path
         sodipodi:nodetypes="cc"
         inkscape:connector-curvature="0"
         id="path6593"
         d="m -12.098828,339.03051 58.075149,10.663"
         style="fill:none;fill-rule:evenodd;stroke:#0000ff;stroke-width:2.64583325;stroke-linecap:butt;stroke-linejoin:miter;stroke-miterlimit:4;stroke-dasharray:none;stroke-opacity:1" />
      <path
         style="fill:none;fill-rule:evenodd;stroke:#0000ff;stroke-width:2.64583325;stroke-linecap:butt;stroke-linejoin:miter;stroke-miterlimit:4;stroke-dasharray:none;stroke-opacity:1"
         d="m -115.6643,315.59598 77.729907,19.73443"
         id="path6595"
         inkscape:connector-curvature="0"
         sodipodi:nodetypes="cc" />
      <path
         sodipodi:nodetypes="cc"
         inkscape:connector-curvature="0"
         id="path6597"
         d="m -113.00317,290.51372 55.429313,-21.46497"
         style="fill:none;fill-rule:evenodd;stroke:#0000ff;stroke-width:2.64583325;stroke-linecap:butt;stroke-linejoin:miter;stroke-miterlimit:4;stroke-dasharray:none;stroke-opacity:1" />
      <path
         style="fill:none;fill-rule:evenodd;stroke:#0000ff;stroke-width:2.64583325;stroke-linecap:butt;stroke-linejoin:miter;stroke-miterlimit:4;stroke-dasharray:none;stroke-opacity:1"
         d="m -87.093552,94.953315 55.429313,-21.46497"
         id="path6599"
         inkscape:connector-curvature="0"
         sodipodi:nodetypes="cc" />
      <path
         sodipodi:nodetypes="cc"
         inkscape:connector-curvature="0"
         id="path6601"
         d="M 11.796173,55.397425 91.814283,34.466994"
         style="fill:none;fill-rule:evenodd;stroke:#0000ff;stroke-width:2.64583325;stroke-linecap:butt;stroke-linejoin:miter;stroke-miterlimit:4;stroke-dasharray:none;stroke-opacity:1" />
      <path
         sodipodi:nodetypes="cc"
         inkscape:connector-curvature="0"
         id="path6603"
         d="M 5.4231767,74.627908 54.075783,102.64634"
         style="fill:none;fill-rule:evenodd;stroke:#0000ff;stroke-width:2.64583325;stroke-linecap:butt;stroke-linejoin:miter;stroke-miterlimit:4;stroke-dasharray:none;stroke-opacity:1" />
      <path
         style="fill:none;fill-rule:evenodd;stroke:#0000ff;stroke-width:2.64583325;stroke-linecap:butt;stroke-linejoin:miter;stroke-miterlimit:4;stroke-dasharray:none;stroke-opacity:1"
         d="m 41.111411,271.43381 8.562177,57.41808"
         id="path6605"
         inkscape:connector-curvature="0"
         sodipodi:nodetypes="cc" />
      <path
         sodipodi:nodetypes="cc"
         inkscape:connector-curvature="0"
         id="path6607"
         d="M 102.04886,56.014571 79.073236,89.912932"
         style="fill:none;fill-rule:evenodd;stroke:#0000ff;stroke-width:2.64583325;stroke-linecap:butt;stroke-linejoin:miter;stroke-miterlimit:4;stroke-dasharray:none;stroke-opacity:1" />
      <path
         style="fill:none;fill-rule:evenodd;stroke:#0000ff;stroke-width:2.64583325;stroke-linecap:butt;stroke-linejoin:miter;stroke-miterlimit:4;stroke-dasharray:none;stroke-opacity:1"
         d="m 67.838364,119.62472 15.51118,33.36382"
         id="path6609"
         inkscape:connector-curvature="0"
         sodipodi:nodetypes="cc" />
      <path
         sodipodi:nodetypes="cc"
         inkscape:connector-curvature="0"
         id="path6611"
         d="m 105.2561,196.59834 38.49636,68.6434"
         style="fill:none;fill-rule:evenodd;stroke:#0000ff;stroke-width:2.64583325;stroke-linecap:butt;stroke-linejoin:miter;stroke-miterlimit:4;stroke-dasharray:none;stroke-opacity:1" />
      <path
         style="fill:none;fill-rule:evenodd;stroke:#0000ff;stroke-width:2.64583325;stroke-linecap:butt;stroke-linejoin:miter;stroke-miterlimit:4;stroke-dasharray:none;stroke-opacity:1"
         d="m 163.88806,279.2884 65.05101,42.14518"
         id="path6613"
         inkscape:connector-curvature="0"
         sodipodi:nodetypes="cc" />
      <path
         style="fill:none;fill-rule:evenodd;stroke:#0000ff;stroke-width:2.64583325;stroke-linecap:butt;stroke-linejoin:miter;stroke-miterlimit:4;stroke-dasharray:none;stroke-opacity:1"
         d="M 304.18904,253.17688 379.3963,238.12637"
         id="path6615"
         inkscape:connector-curvature="0"
         sodipodi:nodetypes="cc" />
      <path
         style="fill:none;fill-rule:evenodd;stroke:#0000ff;stroke-width:2.64583325;stroke-linecap:butt;stroke-linejoin:miter;stroke-miterlimit:4;stroke-dasharray:none;stroke-opacity:1"
         d="M 120.84214,32.946785 239.8816,16.292666"
         id="path6617"
         inkscape:connector-curvature="0"
         sodipodi:nodetypes="cc" />
      <path
         style="fill:none;fill-rule:evenodd;stroke:#0000ff;stroke-width:2.64583325;stroke-linecap:butt;stroke-linejoin:miter;stroke-miterlimit:4;stroke-dasharray:none;stroke-opacity:1"
         d="M 252.25433,27.149462 224.46786,65.324135"
         id="path6619"
         inkscape:connector-curvature="0"
         sodipodi:nodetypes="cc" />
      <path
         sodipodi:nodetypes="cc"
         inkscape:connector-curvature="0"
         id="path6621"
         d="m 220.71653,101.98493 23.86706,49.68888"
         style="fill:none;fill-rule:evenodd;stroke:#0000ff;stroke-width:2.64583325;stroke-linecap:butt;stroke-linejoin:miter;stroke-miterlimit:4;stroke-dasharray:none;stroke-opacity:1" />
      <path
         style="fill:none;fill-rule:evenodd;stroke:#0000ff;stroke-width:2.64583325;stroke-linecap:butt;stroke-linejoin:miter;stroke-miterlimit:4;stroke-dasharray:none;stroke-opacity:1"
         d="m 268.29051,162.38784 13.71082,55.56881"
         id="path6623"
         inkscape:connector-curvature="0"
         sodipodi:nodetypes="cc" />
      <path
         sodipodi:nodetypes="cc"
         inkscape:connector-curvature="0"
         id="path6625"
         d="m 284.86122,248.44862 -27.98323,59.84513"
         style="fill:none;fill-rule:evenodd;stroke:#0000ff;stroke-width:2.64583325;stroke-linecap:butt;stroke-linejoin:miter;stroke-miterlimit:4;stroke-dasharray:none;stroke-opacity:1" />
      <path
         sodipodi:nodetypes="cc"
         inkscape:connector-curvature="0"
         id="path6627"
         d="m 252.25434,327.02587 0.13305,39.3099"
         style="fill:none;fill-rule:evenodd;stroke:#0000ff;stroke-width:2.64583325;stroke-linecap:butt;stroke-linejoin:miter;stroke-miterlimit:4;stroke-dasharray:none;stroke-opacity:1" />
      <path
         style="fill:none;fill-rule:evenodd;stroke:#0000ff;stroke-width:2.64583325;stroke-linecap:butt;stroke-linejoin:miter;stroke-miterlimit:4;stroke-dasharray:none;stroke-opacity:1"
         d="m 261.34151,320.07686 47.92131,51.82704"
         id="path6629"
         inkscape:connector-curvature="0"
         sodipodi:nodetypes="cc" />
      <path
         sodipodi:nodetypes="cc"
         inkscape:connector-curvature="0"
         id="path6631"
         d="m 112.66367,170.53293 129.16884,-4.30409"
         style="fill:none;fill-rule:evenodd;stroke:#0000ff;stroke-width:2.64583325;stroke-linecap:butt;stroke-linejoin:miter;stroke-miterlimit:4;stroke-dasharray:none;stroke-opacity:1" />
      <path
         style="fill:none;fill-rule:evenodd;stroke:#0000ff;stroke-width:2.64583325;stroke-linecap:butt;stroke-linejoin:miter;stroke-miterlimit:4;stroke-dasharray:none;stroke-opacity:1"
         d="m 269.11546,391.19122 37.76267,-4.97227"
         id="path6633"
         inkscape:connector-curvature="0"
         sodipodi:nodetypes="cc" />
      <text
         id="text6637"
         y="25.31028"
         x="-135.31908"
         style="font-style:normal;font-variant:normal;font-weight:normal;font-stretch:normal;font-size:35.27777863px;line-height:7.9375px;font-family:'Latin Modern Sans';-inkscape-font-specification:'Latin Modern Sans';font-variant-ligatures:normal;font-variant-position:normal;font-variant-caps:normal;font-variant-numeric:normal;font-variant-alternates:normal;font-feature-settings:normal;text-indent:0;text-align:start;text-decoration:none;text-decoration-line:none;text-decoration-style:solid;text-decoration-color:#000000;letter-spacing:0px;word-spacing:0px;text-transform:none;writing-mode:lr-tb;direction:ltr;text-orientation:mixed;dominant-baseline:auto;baseline-shift:baseline;text-anchor:start;white-space:normal;shape-padding:0;opacity:1;vector-effect:none;fill:#fe0000;fill-opacity:1;stroke:none;stroke-width:0.26458332px;stroke-linecap:butt;stroke-linejoin:miter;stroke-miterlimit:4;stroke-dasharray:none;stroke-dashoffset:0;stroke-opacity:1"
         xml:space="preserve"><tspan
           style="font-size:35.27777863px;fill:#fe0000;fill-opacity:1;stroke-width:0.26458332px"
           y="25.31028"
           x="-135.31908"
           id="tspan6635"
           sodipodi:role="line">dos</tspan></text>
      <text
         id="text6641"
         y="10.191232"
         x="80.883301"
         style="font-style:normal;font-variant:normal;font-weight:normal;font-stretch:normal;font-size:25.39999962px;line-height:7.9375px;font-family:'Latin Modern Sans';-inkscape-font-specification:'Latin Modern Sans';font-variant-ligatures:normal;font-variant-position:normal;font-variant-caps:normal;font-variant-numeric:normal;font-variant-alternates:normal;font-feature-settings:normal;text-indent:0;text-align:start;text-decoration:none;text-decoration-line:none;text-decoration-style:solid;text-decoration-color:#000000;letter-spacing:0px;word-spacing:0px;text-transform:none;writing-mode:lr-tb;direction:ltr;text-orientation:mixed;dominant-baseline:auto;baseline-shift:baseline;text-anchor:start;white-space:normal;shape-padding:0;opacity:1;vector-effect:none;fill:#fe0000;fill-opacity:1;stroke:none;stroke-width:0.26458332px;stroke-linecap:butt;stroke-linejoin:miter;stroke-miterlimit:4;stroke-dasharray:none;stroke-dashoffset:0;stroke-opacity:1"
         xml:space="preserve"><tspan
           style="font-size:35.27777863px;fill:#fe0000;fill-opacity:1;stroke-width:0.26458332px"
           y="10.191232"
           x="80.883301"
           id="tspan6639"
           sodipodi:role="line">ocho</tspan></text>
      <text
         id="text6645"
         y="21.530516"
         x="285.74637"
         style="font-style:normal;font-variant:normal;font-weight:normal;font-stretch:normal;font-size:25.39999962px;line-height:7.9375px;font-family:'Latin Modern Sans';-inkscape-font-specification:'Latin Modern Sans';font-variant-ligatures:normal;font-variant-position:normal;font-variant-caps:normal;font-variant-numeric:normal;font-variant-alternates:normal;font-feature-settings:normal;text-indent:0;text-align:start;text-decoration:none;text-decoration-line:none;text-decoration-style:solid;text-decoration-color:#000000;letter-spacing:0px;word-spacing:0px;text-transform:none;writing-mode:lr-tb;direction:ltr;text-orientation:mixed;dominant-baseline:auto;baseline-shift:baseline;text-anchor:start;white-space:normal;shape-padding:0;opacity:1;vector-effect:none;fill:#fe0000;fill-opacity:1;stroke:none;stroke-width:0.26458332px;stroke-linecap:butt;stroke-linejoin:miter;stroke-miterlimit:4;stroke-dasharray:none;stroke-dashoffset:0;stroke-opacity:1"
         xml:space="preserve"><tspan
           style="font-size:35.27777863px;fill:#fe0000;fill-opacity:1;stroke-width:0.26458332px"
           y="21.530516"
           x="285.74637"
           id="tspan6643"
           sodipodi:role="line">cuatro</tspan></text>
      <text
         id="text6649"
         y="207.4948"
         x="342.44281"
         style="font-style:normal;font-variant:normal;font-weight:normal;font-stretch:normal;font-size:25.39999962px;line-height:7.9375px;font-family:'Latin Modern Sans';-inkscape-font-specification:'Latin Modern Sans';font-variant-ligatures:normal;font-variant-position:normal;font-variant-caps:normal;font-variant-numeric:normal;font-variant-alternates:normal;font-feature-settings:normal;text-indent:0;text-align:start;text-decoration:none;text-decoration-line:none;text-decoration-style:solid;text-decoration-color:#000000;letter-spacing:0px;word-spacing:0px;text-transform:none;writing-mode:lr-tb;direction:ltr;text-orientation:mixed;dominant-baseline:auto;baseline-shift:baseline;text-anchor:start;white-space:normal;shape-padding:0;opacity:1;vector-effect:none;fill:#fe0000;fill-opacity:1;stroke:none;stroke-width:0.26458332px;stroke-linecap:butt;stroke-linejoin:miter;stroke-miterlimit:4;stroke-dasharray:none;stroke-dashoffset:0;stroke-opacity:1"
         xml:space="preserve"><tspan
           style="font-size:35.27777863px;fill:#fe0000;fill-opacity:1;stroke-width:0.26458332px"
           y="207.4948"
           x="342.44281"
           id="tspan6647"
           sodipodi:role="line">nueve</tspan></text>
      <text
         id="text6653"
         y="354.14957"
         x="-150.43813"
         style="font-style:normal;font-variant:normal;font-weight:normal;font-stretch:normal;font-size:25.39999962px;line-height:7.9375px;font-family:'Latin Modern Sans';-inkscape-font-specification:'Latin Modern Sans';font-variant-ligatures:normal;font-variant-position:normal;font-variant-caps:normal;font-variant-numeric:normal;font-variant-alternates:normal;font-feature-settings:normal;text-indent:0;text-align:start;text-decoration:none;text-decoration-line:none;text-decoration-style:solid;text-decoration-color:#000000;letter-spacing:0px;word-spacing:0px;text-transform:none;writing-mode:lr-tb;direction:ltr;text-orientation:mixed;dominant-baseline:auto;baseline-shift:baseline;text-anchor:start;white-space:normal;shape-padding:0;opacity:1;vector-effect:none;fill:#fe0000;fill-opacity:1;stroke:none;stroke-width:0.26458332px;stroke-linecap:butt;stroke-linejoin:miter;stroke-miterlimit:4;stroke-dasharray:none;stroke-dashoffset:0;stroke-opacity:1"
         xml:space="preserve"><tspan
           style="font-size:35.27777863px;fill:#fe0000;fill-opacity:1;stroke-width:0.26458332px"
           y="354.14957"
           x="-150.43813"
           id="tspan6651"
           sodipodi:role="line">uno</tspan></text>
    </g>
  </g>
</svg>
