<?xml version="1.0" encoding="UTF-8" standalone="no"?>
<!-- Created with Inkscape (http://www.inkscape.org/) -->

<svg
   xmlns:dc="http://purl.org/dc/elements/1.1/"
   xmlns:cc="http://creativecommons.org/ns#"
   xmlns:rdf="http://www.w3.org/1999/02/22-rdf-syntax-ns#"
   xmlns:svg="http://www.w3.org/2000/svg"
   xmlns="http://www.w3.org/2000/svg"
   xmlns:sodipodi="http://sodipodi.sourceforge.net/DTD/sodipodi-0.dtd"
   xmlns:inkscape="http://www.inkscape.org/namespaces/inkscape"
   width="59.962929mm"
   height="73.4021mm"
   viewBox="0 0 59.962931 73.402101"
   version="1.1"
   id="svg5653"
   inkscape:version="0.92.2 (5c3e80d, 2017-08-06)"
   sodipodi:docname="small-cut.svg">
  <defs
     id="defs5647" />
  <sodipodi:namedview
     id="base"
     pagecolor="#ffffff"
     bordercolor="#666666"
     borderopacity="1.0"
     inkscape:pageopacity="0.0"
     inkscape:pageshadow="2"
     inkscape:zoom="1.979899"
     inkscape:cx="107.92927"
     inkscape:cy="174.35362"
     inkscape:document-units="mm"
     inkscape:current-layer="layer8"
     showgrid="false"
     inkscape:window-width="1920"
     inkscape:window-height="1031"
     inkscape:window-x="1680"
     inkscape:window-y="0"
     inkscape:window-maximized="1"
     inkscape:lockguides="false"
     objecttolerance="1" />
  <metadata
     id="metadata5650">
    <rdf:RDF>
      <cc:Work
         rdf:about="">
        <dc:format>image/svg+xml</dc:format>
        <dc:type
           rdf:resource="http://purl.org/dc/dcmitype/StillImage" />
        <dc:title></dc:title>
      </cc:Work>
    </rdf:RDF>
  </metadata>
  <g
     inkscape:label="Capa 1"
     inkscape:groupmode="layer"
     id="layer1"
     transform="translate(-73.597931,-32.26199)"
     style="display:inline">
    <g
       id="g6461">
      <path
         inkscape:connector-curvature="0"
         id="path6251"
         d="M 90.738712,33.764007 105.00731,40.567577 93.573535,52.095851 82.51773,43.780375 Z"
         style="fill:none;fill-rule:evenodd;stroke:#000000;stroke-width:0.26458332px;stroke-linecap:butt;stroke-linejoin:miter;stroke-opacity:1" />
      <path
         inkscape:connector-curvature="0"
         id="path6253"
         d="m 90.738712,33.952994 2.834823,18.331846 15.875005,6.709077 -4.44123,-18.42634"
         style="fill:none;fill-rule:evenodd;stroke:#000000;stroke-width:0.26458332px;stroke-linecap:butt;stroke-linejoin:miter;stroke-opacity:1" />
      <path
         inkscape:connector-curvature="0"
         id="path6255"
         d="m 109.44854,59.08841 -3.49629,15.024555 -20.127228,-6.425597 -7.276042,10.110863 -3.401785,15.96949 9.732888,-5.57514 10.394344,7.74851 -6.425594,7.937499 -4.252232,-15.686009 -5.858633,-10.11087 15.591518,4.15774 -8.598958,-14.552081 v 0"
         style="fill:none;fill-rule:evenodd;stroke:#000000;stroke-width:0.26458332px;stroke-linecap:butt;stroke-linejoin:miter;stroke-opacity:1" />
      <path
         inkscape:connector-curvature="0"
         id="path6257"
         d="m 105.76327,73.923976 -1.79539,13.323655 -8.598959,8.78795 -1.228421,-13.79613 z"
         style="fill:none;fill-rule:evenodd;stroke:#000000;stroke-width:0.26458332px;stroke-linecap:butt;stroke-linejoin:miter;stroke-opacity:1" />
      <g
         transform="rotate(90,94.63579,68.963041)"
         id="g6273">
        <path
           style="display:inline;opacity:1;fill:#fffff9;fill-opacity:1;stroke:#000008;stroke-width:0.26458332;stroke-miterlimit:4;stroke-dasharray:none;stroke-dashoffset:0;stroke-opacity:1"
           id="path4753"
           sodipodi:type="arc"
           sodipodi:cx="84.808403"
           sodipodi:cy="54.244797"
           sodipodi:rx="1.6063988"
           sodipodi:ry="1.6063988"
           sodipodi:start="0.55747736"
           sodipodi:end="0.55205637"
           sodipodi:open="true"
           d="m 86.171581,55.094658 a 1.6063988,1.6063988 0 0 1 -2.211191,0.514467 1.6063988,1.6063988 0 0 1 -0.517463,-2.210491 1.6063988,1.6063988 0 0 1 2.209787,-0.520459 1.6063988,1.6063988 0 0 1 0.523454,2.20908" />
        <path
           style="display:inline;opacity:1;fill:#ff0000;fill-opacity:1;stroke:#000008;stroke-width:0.26458332;stroke-miterlimit:4;stroke-dasharray:none;stroke-dashoffset:0;stroke-opacity:1"
           id="path4757"
           sodipodi:type="arc"
           sodipodi:cx="77.437866"
           sodipodi:cy="70.025299"
           sodipodi:rx="1.6063988"
           sodipodi:ry="1.6063988"
           sodipodi:start="0.55747736"
           sodipodi:end="0.55205637"
           sodipodi:open="true"
           d="m 78.801044,70.87516 a 1.6063988,1.6063988 0 0 1 -2.21119,0.514467 1.6063988,1.6063988 0 0 1 -0.517464,-2.210491 1.6063988,1.6063988 0 0 1 2.209788,-0.520459 1.6063988,1.6063988 0 0 1 0.523453,2.209081" />
        <path
           d="m 113.66936,60.197342 a 1.6063988,1.6063988 0 0 1 -2.21119,0.514467 1.6063988,1.6063988 0 0 1 -0.51746,-2.210491 1.6063988,1.6063988 0 0 1 2.20978,-0.520459 1.6063988,1.6063988 0 0 1 0.52346,2.20908"
           sodipodi:open="true"
           sodipodi:end="0.55205637"
           sodipodi:start="0.55747736"
           sodipodi:ry="1.6063988"
           sodipodi:rx="1.6063988"
           sodipodi:cy="59.347481"
           sodipodi:cx="112.30618"
           sodipodi:type="arc"
           id="path4771"
           style="display:inline;opacity:1;fill:#0000ff;fill-opacity:1;stroke:#000008;stroke-width:0.26458332;stroke-miterlimit:4;stroke-dasharray:none;stroke-dashoffset:0;stroke-opacity:1" />
        <path
           d="m 67.461757,59.535873 a 1.6063988,1.6063988 0 0 1 -2.21119,0.514468 1.6063988,1.6063988 0 0 1 -0.517464,-2.210492 1.6063988,1.6063988 0 0 1 2.209788,-0.520459 1.6063988,1.6063988 0 0 1 0.523453,2.209081"
           sodipodi:open="true"
           sodipodi:end="0.55205637"
           sodipodi:start="0.55747736"
           sodipodi:ry="1.6063988"
           sodipodi:rx="1.6063988"
           sodipodi:cy="58.686012"
           sodipodi:cx="66.098579"
           sodipodi:type="arc"
           id="path6219"
           style="display:inline;opacity:1;fill:#ff0000;fill-opacity:1;stroke:#000008;stroke-width:0.26458332;stroke-miterlimit:4;stroke-dasharray:none;stroke-dashoffset:0;stroke-opacity:1" />
        <path
           d="m 61.036163,73.615493 a 1.6063988,1.6063988 0 0 1 -2.21119,0.514468 1.6063988,1.6063988 0 0 1 -0.517464,-2.210491 1.6063988,1.6063988 0 0 1 2.209788,-0.520459 1.6063988,1.6063988 0 0 1 0.523453,2.20908"
           sodipodi:open="true"
           sodipodi:end="0.55205637"
           sodipodi:start="0.55747736"
           sodipodi:ry="1.6063988"
           sodipodi:rx="1.6063988"
           sodipodi:cy="72.765633"
           sodipodi:cx="59.672985"
           sodipodi:type="arc"
           id="path6221"
           style="display:inline;opacity:1;fill:#fffff9;fill-opacity:1;stroke:#000008;stroke-width:0.26458332;stroke-miterlimit:4;stroke-dasharray:none;stroke-dashoffset:0;stroke-opacity:1" />
        <path
           style="display:inline;opacity:1;fill:#fffff9;fill-opacity:1;stroke:#000008;stroke-width:0.26458332;stroke-miterlimit:4;stroke-dasharray:none;stroke-dashoffset:0;stroke-opacity:1"
           id="path6223"
           sodipodi:type="arc"
           sodipodi:cx="69.500366"
           sodipodi:cy="80.703133"
           sodipodi:rx="1.6063988"
           sodipodi:ry="1.6063988"
           sodipodi:start="0.55747736"
           sodipodi:end="0.55205637"
           sodipodi:open="true"
           d="m 70.863544,81.552993 a 1.6063988,1.6063988 0 0 1 -2.21119,0.514468 1.6063988,1.6063988 0 0 1 -0.517464,-2.210491 1.6063988,1.6063988 0 0 1 2.209788,-0.520459 1.6063988,1.6063988 0 0 1 0.523453,2.20908" />
        <path
           d="m 101.10164,58.307457 a 1.6063988,1.6063988 0 0 1 -2.211188,0.514467 1.6063988,1.6063988 0 0 1 -0.517464,-2.210491 1.6063988,1.6063988 0 0 1 2.209792,-0.520459 1.6063988,1.6063988 0 0 1 0.52345,2.20908"
           sodipodi:open="true"
           sodipodi:end="0.55205637"
           sodipodi:start="0.55747736"
           sodipodi:ry="1.6063988"
           sodipodi:rx="1.6063988"
           sodipodi:cy="57.457596"
           sodipodi:cx="99.738464"
           sodipodi:type="arc"
           id="path6225"
           style="display:inline;opacity:1;fill:#fffff9;fill-opacity:1;stroke:#000008;stroke-width:0.26458332;stroke-miterlimit:4;stroke-dasharray:none;stroke-dashoffset:0;stroke-opacity:1" />
        <path
           style="display:inline;opacity:1;fill:#fffff9;fill-opacity:1;stroke:#000008;stroke-width:0.26458332;stroke-miterlimit:4;stroke-dasharray:none;stroke-dashoffset:0;stroke-opacity:1"
           id="path6227"
           sodipodi:type="arc"
           sodipodi:cx="93.501854"
           sodipodi:cy="77.490334"
           sodipodi:rx="1.6063988"
           sodipodi:ry="1.6063988"
           sodipodi:start="0.55747736"
           sodipodi:end="0.55205637"
           sodipodi:open="true"
           d="m 94.865032,78.340194 a 1.6063988,1.6063988 0 0 1 -2.211191,0.514468 1.6063988,1.6063988 0 0 1 -0.517463,-2.210491 1.6063988,1.6063988 0 0 1 2.209787,-0.520459 1.6063988,1.6063988 0 0 1 0.523454,2.20908" />
        <path
           d="m 104.8814,85.899719 a 1.6063988,1.6063988 0 0 1 -2.21119,0.514467 1.6063988,1.6063988 0 0 1 -0.51746,-2.210491 1.6063988,1.6063988 0 0 1 2.20979,-0.520459 1.6063988,1.6063988 0 0 1 0.52345,2.209081"
           sodipodi:open="true"
           sodipodi:end="0.55205637"
           sodipodi:start="0.55747736"
           sodipodi:ry="1.6063988"
           sodipodi:rx="1.6063988"
           sodipodi:cy="85.049858"
           sodipodi:cx="103.51823"
           sodipodi:type="arc"
           id="path6229"
           style="display:inline;opacity:1;fill:#fffff9;fill-opacity:1;stroke:#000008;stroke-width:0.26458332;stroke-miterlimit:4;stroke-dasharray:none;stroke-dashoffset:0;stroke-opacity:1" />
        <path
           style="display:inline;opacity:1;fill:#fffff9;fill-opacity:1;stroke:#000008;stroke-width:0.26458332;stroke-miterlimit:4;stroke-dasharray:none;stroke-dashoffset:0;stroke-opacity:1"
           id="path6231"
           sodipodi:type="arc"
           sodipodi:cx="119.39323"
           sodipodi:cy="88.262657"
           sodipodi:rx="1.6063988"
           sodipodi:ry="1.6063988"
           sodipodi:start="0.55747736"
           sodipodi:end="0.55205637"
           sodipodi:open="true"
           d="m 120.7564,89.112518 a 1.6063988,1.6063988 0 0 1 -2.21119,0.514468 1.6063988,1.6063988 0 0 1 -0.51746,-2.210492 1.6063988,1.6063988 0 0 1 2.20979,-0.520459 1.6063988,1.6063988 0 0 1 0.52345,2.209081" />
        <path
           d="m 115.65373,79.663116 a 1.6063988,1.6063988 0 0 1 -2.21119,0.514468 1.6063988,1.6063988 0 0 1 -0.51747,-2.210491 1.6063988,1.6063988 0 0 1 2.20979,-0.52046 1.6063988,1.6063988 0 0 1 0.52346,2.209081"
           sodipodi:open="true"
           sodipodi:end="0.55205637"
           sodipodi:start="0.55747736"
           sodipodi:ry="1.6063988"
           sodipodi:rx="1.6063988"
           sodipodi:cy="78.813255"
           sodipodi:cx="114.29055"
           sodipodi:type="arc"
           id="path6233"
           style="display:inline;opacity:1;fill:#fffff9;fill-opacity:1;stroke:#000008;stroke-width:0.26458332;stroke-miterlimit:4;stroke-dasharray:none;stroke-dashoffset:0;stroke-opacity:1" />
        <path
           style="display:inline;opacity:1;fill:#fffff9;fill-opacity:1;stroke:#000008;stroke-width:0.26458332;stroke-miterlimit:4;stroke-dasharray:none;stroke-dashoffset:0;stroke-opacity:1"
           id="path6235"
           sodipodi:type="arc"
           sodipodi:cx="129.59859"
           sodipodi:cy="74.844505"
           sodipodi:rx="1.6063988"
           sodipodi:ry="1.6063988"
           sodipodi:start="0.55747736"
           sodipodi:end="0.55205637"
           sodipodi:open="true"
           d="m 130.96176,75.694366 a 1.6063988,1.6063988 0 0 1 -2.21119,0.514468 1.6063988,1.6063988 0 0 1 -0.51746,-2.210491 1.6063988,1.6063988 0 0 1 2.20979,-0.52046 1.6063988,1.6063988 0 0 1 0.52345,2.209081" />
        <path
           d="m 122.83528,69.268768 a 1.6063988,1.6063988 0 0 1 -2.21119,0.514468 1.6063988,1.6063988 0 0 1 -0.51747,-2.210492 1.6063988,1.6063988 0 0 1 2.20979,-0.520459 1.6063988,1.6063988 0 0 1 0.52345,2.209081"
           sodipodi:open="true"
           sodipodi:end="0.55205637"
           sodipodi:start="0.55747736"
           sodipodi:ry="1.6063988"
           sodipodi:rx="1.6063988"
           sodipodi:cy="68.418907"
           sodipodi:cx="121.4721"
           sodipodi:type="arc"
           id="path6237"
           style="display:inline;opacity:1;fill:#fffff9;fill-opacity:1;stroke:#000008;stroke-width:0.26458332;stroke-miterlimit:4;stroke-dasharray:none;stroke-dashoffset:0;stroke-opacity:1" />
        <path
           style="display:inline;opacity:1;fill:#0000ff;fill-opacity:1;stroke:#000008;stroke-width:0.26458332;stroke-miterlimit:4;stroke-dasharray:none;stroke-dashoffset:0;stroke-opacity:1"
           id="path6239"
           sodipodi:type="arc"
           sodipodi:cx="107.77047"
           sodipodi:cy="69.363853"
           sodipodi:rx="1.6063988"
           sodipodi:ry="1.6063988"
           sodipodi:start="0.55747736"
           sodipodi:end="0.55205637"
           sodipodi:open="true"
           d="m 109.13365,70.213714 a 1.6063988,1.6063988 0 0 1 -2.21119,0.514468 1.6063988,1.6063988 0 0 1 -0.51747,-2.210491 1.6063988,1.6063988 0 0 1 2.20979,-0.520459 1.6063988,1.6063988 0 0 1 0.52345,2.20908" />
      </g>
    </g>
  </g>
  <g
     inkscape:groupmode="layer"
     id="layer8"
     inkscape:label="Capa 5"
     style="display:inline">
    <path
       inkscape:connector-curvature="0"
       id="path4775-7"
       d="m 15.702084,30.037621 27.261492,6.949004"
       style="display:inline;fill:none;fill-rule:evenodd;stroke:#00908c;stroke-width:0.52916676;stroke-linecap:butt;stroke-linejoin:miter;stroke-miterlimit:4;stroke-dasharray:none;stroke-opacity:1"
       sodipodi:nodetypes="cc" />
    <path
       inkscape:connector-curvature="0"
       id="path4775-7-5"
       d="m 25.457423,1.9743197 2.53906,64.9464913"
       style="display:inline;fill:none;fill-rule:evenodd;stroke:#00908c;stroke-width:0.52916682;stroke-linecap:butt;stroke-linejoin:miter;stroke-miterlimit:4;stroke-dasharray:none;stroke-opacity:1"
       sodipodi:nodetypes="cc" />
    <text
       xml:space="preserve"
       style="font-style:normal;font-variant:normal;font-weight:normal;font-stretch:normal;font-size:5.64444447px;line-height:7.9375px;font-family:'Latin Modern Sans';-inkscape-font-specification:'Latin Modern Sans';font-variant-ligatures:normal;font-variant-position:normal;font-variant-caps:normal;font-variant-numeric:normal;font-variant-alternates:normal;font-feature-settings:normal;text-indent:0;text-align:start;text-decoration:none;text-decoration-line:none;text-decoration-style:solid;text-decoration-color:#000000;letter-spacing:0px;word-spacing:0px;text-transform:none;writing-mode:lr-tb;direction:ltr;text-orientation:mixed;dominant-baseline:auto;baseline-shift:baseline;text-anchor:start;white-space:normal;shape-padding:0;display:inline;opacity:1;vector-effect:none;fill:#00908c;fill-opacity:1;stroke:none;stroke-width:0.26458332px;stroke-linecap:butt;stroke-linejoin:miter;stroke-miterlimit:4;stroke-dasharray:none;stroke-dashoffset:0;stroke-opacity:1"
       x="18.842505"
       y="70.863045"
       id="text6496"><tspan
         sodipodi:role="line"
         id="tspan6494"
         x="18.842505"
         y="70.863045"
         style="font-size:5.64444447px;fill:#00908c;fill-opacity:1;stroke-width:0.26458332px">no consistente</tspan></text>
    <text
       id="text6502"
       y="40.928856"
       x="34.210503"
       style="font-style:normal;font-variant:normal;font-weight:normal;font-stretch:normal;font-size:5.64444447px;line-height:7.9375px;font-family:'Latin Modern Sans';-inkscape-font-specification:'Latin Modern Sans';font-variant-ligatures:normal;font-variant-position:normal;font-variant-caps:normal;font-variant-numeric:normal;font-variant-alternates:normal;font-feature-settings:normal;text-indent:0;text-align:start;text-decoration:none;text-decoration-line:none;text-decoration-style:solid;text-decoration-color:#000000;letter-spacing:0px;word-spacing:0px;text-transform:none;writing-mode:lr-tb;direction:ltr;text-orientation:mixed;dominant-baseline:auto;baseline-shift:baseline;text-anchor:start;white-space:normal;shape-padding:0;display:inline;opacity:1;vector-effect:none;fill:#00908c;fill-opacity:1;stroke:none;stroke-width:0.26458332px;stroke-linecap:butt;stroke-linejoin:miter;stroke-miterlimit:4;stroke-dasharray:none;stroke-dashoffset:0;stroke-opacity:1"
       xml:space="preserve"><tspan
         style="font-size:5.64444447px;fill:#00908c;fill-opacity:1;stroke-width:0.26458332px"
         y="40.928856"
         x="34.210503"
         id="tspan6500"
         sodipodi:role="line">consistente</tspan></text>
  </g>
  <g
     inkscape:groupmode="layer"
     id="layer9"
     inkscape:label="Capa 10"
     style="display:inline">
    <path
       transform="translate(-73.597931,-32.26199)"
       inkscape:connector-curvature="0"
       id="path4775"
       d="m 97.042277,63.067473 18.575233,5.479022"
       style="display:inline;fill:none;fill-rule:evenodd;stroke:#00908c;stroke-width:0.5291667;stroke-linecap:butt;stroke-linejoin:miter;stroke-miterlimit:4;stroke-dasharray:none;stroke-opacity:1"
       sodipodi:nodetypes="cc" />
    <path
       transform="translate(-73.597931,-32.26199)"
       sodipodi:nodetypes="cc"
       style="display:inline;fill:none;fill-rule:evenodd;stroke:#00908c;stroke-width:0.5291667;stroke-linecap:butt;stroke-linejoin:miter;stroke-miterlimit:4;stroke-dasharray:none;stroke-opacity:1"
       d="M 95.037756,59.459334 113.34572,45.160411"
       id="path6290"
       inkscape:connector-curvature="0" />
    <text
       transform="translate(-73.597931,-32.26199)"
       xml:space="preserve"
       style="font-style:normal;font-variant:normal;font-weight:normal;font-stretch:normal;font-size:4.23333311px;line-height:7.9375px;font-family:'Latin Modern Sans';-inkscape-font-specification:'Latin Modern Sans';font-variant-ligatures:normal;font-variant-position:normal;font-variant-caps:normal;font-variant-numeric:normal;font-variant-alternates:normal;font-feature-settings:normal;text-indent:0;text-align:start;text-decoration:none;text-decoration-line:none;text-decoration-style:solid;text-decoration-color:#000000;letter-spacing:0px;word-spacing:0px;text-transform:none;writing-mode:lr-tb;direction:ltr;text-orientation:mixed;dominant-baseline:auto;baseline-shift:baseline;text-anchor:start;white-space:normal;shape-padding:0;opacity:1;vector-effect:none;fill:#00908c;fill-opacity:1;stroke:none;stroke-width:0.26458332px;stroke-linecap:butt;stroke-linejoin:miter;stroke-miterlimit:4;stroke-dasharray:none;stroke-dashoffset:0;stroke-opacity:1"
       x="109.1796"
       y="44.163021"
       id="text6317"><tspan
         sodipodi:role="line"
         id="tspan6315"
         x="109.1796"
         y="44.163021"
         style="font-size:5.64444447px;fill:#00908c;fill-opacity:1;stroke-width:0.26458332px">corta 2</tspan></text>
    <text
       transform="translate(-73.597931,-32.26199)"
       xml:space="preserve"
       style="font-style:normal;font-variant:normal;font-weight:normal;font-stretch:normal;font-size:4.23333311px;line-height:7.9375px;font-family:'Latin Modern Sans';-inkscape-font-specification:'Latin Modern Sans';font-variant-ligatures:normal;font-variant-position:normal;font-variant-caps:normal;font-variant-numeric:normal;font-variant-alternates:normal;font-feature-settings:normal;text-indent:0;text-align:start;text-decoration:none;text-decoration-line:none;text-decoration-style:solid;text-decoration-color:#000000;letter-spacing:0px;word-spacing:0px;text-transform:none;writing-mode:lr-tb;direction:ltr;text-orientation:mixed;dominant-baseline:auto;baseline-shift:baseline;text-anchor:start;white-space:normal;shape-padding:0;opacity:1;vector-effect:none;fill:#00908c;fill-opacity:1;stroke:none;stroke-width:0.26458332px;stroke-linecap:butt;stroke-linejoin:miter;stroke-miterlimit:4;stroke-dasharray:none;stroke-dashoffset:0;stroke-opacity:1"
       x="110.43076"
       y="71.970596"
       id="text6317-3"><tspan
         sodipodi:role="line"
         id="tspan6315-6"
         x="110.43076"
         y="71.970596"
         style="font-size:5.64444447px;fill:#00908c;fill-opacity:1;stroke-width:0.26458332px">corta 1</tspan></text>
  </g>
</svg>
